<svg width="196" height="200" viewBox="0 0 196 200" fill="none" xmlns="http://www.w3.org/2000/svg">
<path d="M92.3423 33.4304C92.3423 14.3246 92.3423 4.77172 86.1184 1.18939C79.8946 -2.39294 71.5961 2.3835 54.9992 11.9364L43.0012 18.8423C26.4043 28.3951 18.1058 33.1716 18.1058 40.3362C18.1058 47.5009 26.4043 52.2773 43.0012 61.8302L54.9992 68.7361C71.5961 78.289 79.8946 83.0654 86.1184 79.4831C92.3423 75.9007 92.3423 66.3479 92.3423 47.2421V33.4304Z" fill="white"/>
<path d="M37.343 71.6001C20.7461 62.0472 12.4477 57.2708 6.22384 60.8531C0 64.4355 0 73.9883 0 93.0941V106.906C0 126.012 0 135.564 6.22384 139.147C12.4477 142.729 20.7461 137.953 37.343 128.4L49.3411 121.494C65.938 111.941 74.2365 107.165 74.2365 100C74.2365 92.8353 65.938 88.0589 49.3411 78.506L37.343 71.6001Z" fill="white"/>
<path d="M43.0011 138.17C26.4042 147.723 18.1058 152.499 18.1058 159.664C18.1058 166.828 26.4042 171.605 43.0011 181.158L54.9992 188.064C71.5961 197.616 79.8946 202.393 86.1184 198.811C92.3423 195.228 92.3423 185.675 92.3423 166.57V152.758C92.3423 133.652 92.3423 124.099 86.1184 120.517C79.8946 116.935 71.5961 121.711 54.9992 131.264L43.0011 138.17Z" fill="white"/>
<path d="M103.658 166.569C103.658 185.675 103.658 195.228 109.882 198.81C116.106 202.393 124.404 197.616 141.001 188.063L152.999 181.158C169.596 171.605 177.894 166.828 177.894 159.664C177.894 152.499 169.596 147.723 152.999 138.17L141.001 131.264C124.404 121.711 116.106 116.935 109.882 120.517C103.658 124.099 103.658 133.652 103.658 152.758V166.569Z" fill="white"/>
<path d="M158.657 128.4C175.254 137.953 183.552 142.729 189.776 139.147C196 135.564 196 126.011 196 106.906V93.0943C196 73.9886 196 64.4357 189.776 60.8534C183.552 57.271 175.254 62.0475 158.657 71.6003L146.659 78.506C130.062 88.0589 121.764 92.8353 121.764 100C121.764 107.165 130.062 111.941 146.659 121.494L158.657 128.4Z" fill="white"/>
<path d="M152.999 61.8303C169.596 52.2774 177.894 47.501 177.894 40.3363C177.894 33.1717 169.596 28.3953 152.999 18.8424L141.001 11.9367C124.404 2.38384 116.106 -2.3926 109.882 1.18973C103.658 4.77206 103.658 14.3249 103.658 33.4307V47.242C103.658 66.3478 103.658 75.9006 109.882 79.483C116.106 83.0653 124.404 78.2889 141.001 68.736L152.999 61.8303Z" fill="white"/>
</svg>
