<svg width="200" height="200" viewBox="0 0 200 200" fill="none" xmlns="http://www.w3.org/2000/svg">
<path fill-rule="evenodd" clip-rule="evenodd" d="M200 100C200 44.7715 155.228 -6.81493e-06 100 -4.37114e-06C44.7715 -1.98695e-06 -6.7634e-06 44.7715 -4.37114e-06 100C-1.93517e-06 155.228 44.7715 200 100 200C155.228 200 200 155.228 200 100ZM114.797 85.2024C123.017 93.4221 135.498 95.1694 160.461 98.6643L170 99.9997L160.461 101.335C135.498 104.83 123.017 106.577 114.797 114.797C106.578 123.017 104.83 135.498 101.335 160.461L100 170L98.6645 160.461C95.1697 135.498 93.4223 123.017 85.2027 114.797C76.9831 106.577 64.5016 104.83 39.5387 101.335L30 99.9997L39.5388 98.6643C64.5017 95.1695 76.9832 93.4221 85.2028 85.2025C93.4224 76.9829 95.1698 64.5014 98.6646 39.5386L100 30L101.335 39.5385C104.83 64.5014 106.578 76.9828 114.797 85.2024Z" fill="white"/>
</svg>
