<svg width="200" height="200" viewBox="0 0 200 200" fill="none" xmlns="http://www.w3.org/2000/svg">
<path d="M162.233 199.848C168.081 196.472 173.132 191.849 177.099 186.244C181.066 180.638 183.871 174.159 185.354 167.178C186.836 160.196 186.967 152.848 185.739 145.553C184.511 138.258 181.948 131.16 178.197 124.662C174.446 118.165 169.579 112.396 163.876 107.685C158.172 102.974 151.743 99.4136 144.956 97.2065C138.168 94.9995 131.155 94.1892 124.317 94.8219C117.479 95.4546 110.95 97.5179 105.102 100.894L162.233 199.848Z" fill="white"/>
<path d="M37.6153 3.4653e-05C31.7676 3.3762 26.7161 7.99906 22.7491 13.6047C18.7821 19.2103 15.9773 25.6889 14.4949 32.6706C13.0125 39.6523 12.8816 47.0003 14.1095 54.2951C15.3374 61.59 17.9002 68.6887 21.6515 75.1862C25.4028 81.6836 30.2691 87.4524 35.9727 92.1632C41.6762 96.8741 48.1053 100.435 54.8928 102.642C61.6803 104.849 68.6933 105.659 75.5314 105.026C82.3695 104.394 88.8988 102.33 94.7465 98.9542L37.6153 3.4653e-05Z" fill="white"/>
<path d="M0.000228929 162.233C3.37639 168.081 7.99925 173.133 13.6049 177.1C19.2105 181.067 25.6891 183.871 32.6708 185.354C39.6525 186.836 47.0005 186.967 54.2953 185.739C61.5902 184.511 68.6889 181.948 75.1864 178.197C81.6838 174.446 87.4526 169.58 92.1635 163.876C96.8743 158.172 100.435 151.743 102.642 144.956C104.849 138.168 105.659 131.155 105.027 124.317C104.394 117.479 102.331 110.95 98.9544 105.102L0.000228929 162.233Z" fill="white"/>
<path d="M199.846 37.6153C196.47 31.7676 191.847 26.716 186.241 22.7491C180.636 18.7821 174.157 15.9773 167.176 14.4949C160.194 13.0126 152.846 12.8816 145.551 14.1095C138.256 15.3375 131.157 17.9002 124.66 21.6515C118.162 25.4028 112.394 30.2692 107.683 35.9727C102.972 41.6763 99.4114 48.1053 97.2043 54.8928C94.9973 61.6803 94.1869 68.6933 94.8196 75.5314C95.4524 82.3695 97.5157 88.8988 100.892 94.7465L199.846 37.6153Z" fill="white"/>
</svg>
