<svg width="210" height="210" viewBox="0 0 210 210" fill="none" xmlns="http://www.w3.org/2000/svg">
<path d="M146.665 100.555C153.621 100.555 157.099 100.555 160.119 99.4214C162.571 98.501 164.789 97.0504 166.615 95.1731C168.864 92.8602 170.259 89.6738 173.047 83.3009L209.491 3.27788e-05L126.19 36.4438C119.817 39.232 116.631 40.6261 114.318 42.8756C112.44 44.7015 110.99 46.9197 110.069 49.3715C108.935 52.3921 108.936 55.8703 108.936 62.8266L108.936 90.9566C108.936 94.387 108.936 96.1021 109.625 97.4029C110.18 98.4526 111.039 99.3111 112.088 99.8668C113.389 100.556 115.104 100.556 118.535 100.556L146.665 100.555Z" fill="white"/>
<path d="M100.556 146.664C100.556 153.62 100.556 157.098 99.422 160.119C98.5017 162.57 97.051 164.789 95.1737 166.614C92.8608 168.864 89.6744 170.258 83.3015 173.046L0.000644295 209.491L36.4444 126.19C39.2326 119.817 40.6267 116.63 42.8762 114.317C44.7021 112.44 46.9203 110.989 49.3721 110.069C52.3927 108.935 55.8709 108.935 62.8272 108.935L90.9572 108.935C94.3876 108.935 96.1027 108.935 97.4035 109.624C98.4532 110.18 99.3117 111.038 99.8674 112.088C100.556 113.389 100.556 115.104 100.556 118.534L100.556 146.664Z" fill="white"/>
<path d="M209.491 209.491L126.19 173.046C119.817 170.258 116.63 168.864 114.318 166.614C112.44 164.789 110.99 162.57 110.069 160.119C108.935 157.098 108.935 153.62 108.935 146.664L108.935 118.534C108.935 115.104 108.935 113.389 109.624 112.088C110.18 111.038 111.038 110.18 112.088 109.624C113.388 108.935 115.104 108.935 118.534 108.935L146.664 108.935C153.62 108.935 157.098 108.935 160.119 110.069C162.571 110.989 164.789 112.44 166.615 114.317C168.865 116.63 170.259 119.817 173.047 126.19L209.491 209.491Z" fill="white"/>
<path d="M62.8267 100.555C55.8706 100.555 52.3925 100.555 49.3719 99.4214C46.9202 98.5011 44.7021 97.0504 42.8762 95.1731C40.6267 92.8602 39.2326 89.6738 36.4444 83.3009L-0.000154849 3.27788e-05L83.301 36.4438C89.674 39.232 92.8606 40.6261 95.1735 42.8756C97.0508 44.7015 98.5015 46.9197 99.4219 49.3715C100.556 52.3921 100.556 55.8703 100.556 62.8266L100.555 90.9566C100.555 94.387 100.555 96.1021 99.8667 97.4029C99.3109 98.4526 98.4524 99.3111 97.4027 99.8668C96.1019 100.556 94.3868 100.556 90.9564 100.556L62.8267 100.555Z" fill="white"/>
</svg>
