<svg width="198" height="198" viewBox="0 0 198 198" fill="none" xmlns="http://www.w3.org/2000/svg">
<path d="M98.581 85.9305C102.786 70.0114 109.351 46.9056 114.93 34.9542C123.961 15.6068 134.45 6.04837 144.753 2.32129C160.066 -3.21845 175.358 1.64702 185.437 11.7257C195.515 21.8044 200.381 37.0964 194.841 52.4096C191.114 62.7122 181.555 73.2011 162.208 82.2322C150.257 87.8109 127.151 94.3766 111.232 98.5811C127.151 102.786 150.257 109.351 162.208 114.93C181.555 123.961 191.114 134.45 194.841 144.753C200.38 160.066 195.515 175.358 185.436 185.436C175.358 195.515 160.066 200.381 144.752 194.841C134.45 191.114 123.961 181.555 114.93 162.208C109.351 150.257 102.786 127.152 98.5811 111.233C94.3765 127.152 87.811 150.257 82.2324 162.208C73.2012 181.555 62.7123 191.114 52.4097 194.841C37.0965 200.381 21.8046 195.515 11.7258 185.436C1.64714 175.358 -3.21833 160.066 2.32141 144.753C6.0485 134.45 15.607 123.961 34.9543 114.93C46.9055 109.351 70.0109 102.786 85.9299 98.5811C70.0109 94.3766 46.9053 87.8109 34.954 82.2322C15.6067 73.2011 6.04822 62.7122 2.32113 52.4096C-3.21861 37.0964 1.64686 21.8044 11.7256 11.7257C21.8043 1.64702 37.0962 -3.21845 52.4095 2.32129C62.7121 6.04837 73.201 15.6068 82.2321 34.9542C87.8108 46.9056 94.3765 70.0114 98.581 85.9305Z" fill="white"/>
</svg>
