<svg width="1408" height="768" viewBox="0 0 1408 768" fill="none" xmlns="http://www.w3.org/2000/svg">
<path d="M1018 130C1018 131.532 1018 131.532 1018.01 133.096C1018.09 157.968 1018.18 182.84 1018.29 207.712C1018.34 219.74 1018.38 231.768 1018.42 243.796C1018.45 254.282 1018.49 264.767 1018.54 275.253C1018.57 280.803 1018.59 286.353 1018.6 291.904C1018.62 297.132 1018.64 302.36 1018.67 307.589C1018.68 309.503 1018.68 311.418 1018.68 313.333C1017.91 330.851 1017.91 330.851 1025 346C1028.24 347.654 1031.55 348.876 1035 350C1035.99 350.33 1036.98 350.66 1038 351C1038 352.32 1038 353.64 1038 355C1037.2 355.184 1036.41 355.369 1035.59 355.559C1028.39 357.291 1021.27 359.19 1014.18 361.305C1013.14 361.611 1013.14 361.611 1012.09 361.924C1008.58 362.966 1005.07 364.02 1001.57 365.09C1000.25 365.483 998.928 365.877 997.609 366.27C996.433 366.626 995.257 366.983 994.046 367.351C991.148 367.969 989.722 368.043 987 367C986.518 364.021 986.039 361.042 985.562 358.063C985.428 357.232 985.293 356.401 985.154 355.545C984.484 351.346 983.893 347.165 983.465 342.934C983.439 339.233 983.439 339.233 982 338C981.671 338.606 981.343 339.212 981.004 339.836C972.937 354.047 962.778 363.413 947 368C932.029 371.045 916.694 367.401 904 359C885.395 345.193 877.634 325.525 873.539 303.523C870.511 282.329 874.133 260.31 883 241C883.628 239.623 883.628 239.623 884.269 238.219C888.244 230.246 893.764 224.245 900 218C900.597 217.392 901.194 216.783 901.809 216.156C915.491 203.327 932.619 201.204 950.512 201.652C961.381 202.169 970.022 205.934 979 212C980.485 212.99 980.485 212.99 982 214C981.906 208.486 981.799 202.973 981.683 197.46C981.645 195.588 981.61 193.716 981.578 191.844C981.532 189.138 981.474 186.432 981.414 183.727C981.402 182.903 981.391 182.08 981.379 181.232C981.167 172.701 980.521 162.688 974.312 156.25C970.988 154.453 967.691 153.8 964 153C964 151.68 964 150.36 964 149C964.743 148.744 965.487 148.488 966.253 148.225C969.755 147.014 973.254 145.792 976.75 144.563C977.383 144.34 978.015 144.118 978.667 143.889C987.929 140.62 996.956 137.028 1005.78 132.694C1006.52 132.338 1007.26 131.983 1008.02 131.617C1008.65 131.304 1009.28 130.99 1009.93 130.668C1012.65 129.789 1015.15 129.959 1018 130ZM924.125 223.305C908.879 245.45 907.877 278.297 912.187 303.875C915.124 319.47 920.293 334.697 933 345C940.618 349.778 948.52 351.336 957.406 349.504C965.487 347.055 971.141 342.98 975.648 335.797C981.555 323.574 982.163 310.184 982.238 296.879C982.242 296.199 982.246 295.52 982.251 294.819C982.271 291.215 982.286 287.611 982.295 284.007C982.304 281.06 982.325 278.113 982.357 275.166C983.401 244.877 983.401 244.877 969.238 219.168C962.755 213.181 955.071 210.573 946.238 210.723C937.611 211.792 929.552 216.633 924.125 223.305Z" fill="#FDFDFD"/>
<path d="M519 414C521.839 416.839 521.073 424.374 521.114 428.223C521.113 430.169 521.108 432.116 521.098 434.062C521.096 435.61 521.096 435.61 521.093 437.189C521.088 440.46 521.075 443.73 521.063 447C521.058 449.228 521.053 451.456 521.049 453.684C521.038 459.122 521.021 464.561 521 470C519.02 470 517.04 470 515 470C514.792 469.464 514.585 468.927 514.371 468.375C501.346 434.521 501.346 434.521 474.5 411.562C461.8 406.221 449.535 405.496 436.566 410.781C426.923 415.361 421.13 421.212 417.125 431.187C414.624 439.754 414.746 449.499 418.551 457.629C429.44 475.445 450.124 483.352 468.375 491.437C518.817 513.807 518.817 513.807 529.063 539.684C534.216 556.357 532.317 573.366 525 589C517.092 603.895 502.888 614.022 487.059 619.191C453.077 628.175 415.138 622.994 384.641 605.602C382 604 382 604 381 603C380.839 600.447 380.74 597.919 380.684 595.363C380.663 594.58 380.642 593.796 380.621 592.989C380.554 590.43 380.496 587.871 380.438 585.312C380.395 583.571 380.352 581.83 380.309 580.089C380.014 567.725 379.875 555.368 380 543C382.31 543 384.62 543 387 543C387.413 544.186 387.825 545.372 388.25 546.594C397.827 573.639 410.042 597.853 437.063 610.777C449.762 616.063 463.867 615.082 476.473 610.004C485.663 605.448 491.745 597.619 495 588C497.98 578.455 496.555 567.745 492 559C481.859 542.242 459.847 534.754 442.818 527.021C394.45 505.049 394.45 505.049 384.688 479.187C379.765 465.125 380.403 448.414 386.697 434.967C394.676 418.645 407.096 408.938 424.344 402.812C455.703 393.207 490.613 397.992 519 414Z" fill="#FDFDFD"/>
<path d="M336 139C336.456 140.2 336.911 141.4 337.381 142.636C343.041 157.525 348.763 172.39 354.5 187.25C354.986 188.51 355.473 189.77 355.959 191.03C362.63 208.314 369.33 225.586 376.081 242.839C379.679 252.039 383.26 261.246 386.82 270.461C396.941 296.717 396.941 296.717 407.312 322.875C407.714 323.882 408.115 324.889 408.529 325.927C413.836 338.95 419.645 352.285 433.059 358.223C433.699 358.479 434.34 358.736 435 359C435 360.65 435 362.3 435 364C406.95 364 378.9 364 350 364C350 362.35 350 360.7 350 359C350.687 358.795 351.374 358.59 352.082 358.379C352.983 358.109 353.884 357.84 354.812 357.562C355.706 357.296 356.599 357.029 357.52 356.754C359.355 356.196 361.18 355.607 363 355C364.078 353.059 364.078 353.059 364.75 350.625C365.013 349.834 365.276 349.042 365.547 348.227C368.324 328.451 355.089 304.915 349 288C323.92 288 298.84 288 273 288C267.53 302.639 267.53 302.639 262.625 317.438C262.379 318.224 262.133 319.011 261.879 319.822C258.572 330.458 257.27 340.453 262 351C265.588 355.818 269.455 357.214 275 359C275 360.65 275 362.3 275 364C256.19 364 237.38 364 218 364C218 362.35 218 360.7 218 359C218.557 358.792 219.114 358.585 219.688 358.371C234.699 352.311 240.068 340.507 246.169 326.368C248.741 320.304 251.028 314.141 253.283 307.953C254.668 304.151 256.07 300.355 257.469 296.559C257.758 295.772 258.047 294.986 258.345 294.176C261.236 286.331 264.205 278.515 267.178 270.7C272.314 257.199 277.354 243.669 282.219 230.068C284.839 222.775 287.555 215.53 290.391 208.319C291.999 204.229 293.591 200.132 295.185 196.037C295.972 194.028 296.768 192.023 297.572 190.022C298.703 187.21 299.803 184.388 300.898 181.562C301.243 180.729 301.587 179.896 301.941 179.038C305.184 170.507 302.663 164.157 299.375 155.938C298.929 154.812 298.483 153.687 298.023 152.527C297.686 151.693 297.348 150.859 297 150C297.552 149.844 298.105 149.689 298.674 149.529C308.893 146.645 319.096 143.744 329.199 140.474C333.797 139 333.797 139 336 139ZM310 184C305.249 194.877 301.278 206.028 297.25 217.188C296.534 219.163 295.819 221.139 295.103 223.115C293.064 228.742 291.031 234.371 289 240C288.732 240.742 288.464 241.484 288.188 242.248C285.757 248.985 283.329 255.722 280.916 262.465C280.246 264.318 279.567 266.168 278.881 268.015C278.513 269.009 278.145 270.003 277.766 271.027C277.428 271.931 277.091 272.834 276.743 273.765C275.895 275.924 275.895 275.924 276 278C299.1 278 322.2 278 346 278C334.487 246.602 322.866 215.263 311 184C310.67 184 310.34 184 310 184Z" fill="#FDFDFD"/>
<path d="M770.707 467.965C784.09 479.06 788.39 494.239 790 511C790.138 513.831 790.164 516.658 790.174 519.492C790.18 520.3 790.187 521.107 790.194 521.94C790.208 523.679 790.22 525.418 790.23 527.158C790.246 529.916 790.27 532.675 790.295 535.433C790.365 543.271 790.426 551.109 790.477 558.947C790.509 563.755 790.55 568.562 790.597 573.369C790.613 575.194 790.625 577.018 790.634 578.842C790.646 581.398 790.67 583.953 790.697 586.508C790.698 587.252 790.698 587.996 790.699 588.763C790.768 593.789 791.415 598.21 793 603C798.144 604.715 803.155 604.904 808.063 602.5C808.702 602.005 809.341 601.51 810 601C810.99 602.32 811.98 603.64 813 605C807.355 613.835 799.785 619.991 789.5 622.562C781.186 624.018 774.462 623.064 767 619C759.673 613.139 756.154 604.599 753 596C752.683 596.534 752.366 597.067 752.039 597.617C744.11 610.277 733.947 619.151 719.174 622.616C705.498 625.031 690.042 623.655 678.125 616.25C668.737 609.27 661.775 601.052 659.278 589.324C657.625 575.475 659.398 562.985 667.754 551.613C680.763 536.134 700.183 530.344 718.683 524.083C736.149 518.412 736.149 518.412 749 506C752.399 497.726 751.462 488.451 749 480C746.228 473.861 743.2 469.037 737 466C730.449 463.574 724.938 463.054 718.313 465.188C712.097 468.589 709.404 472.39 707 479C706.174 481.841 705.859 484.416 705.789 487.371C705.747 488.604 705.747 488.604 705.703 489.861C705.651 491.575 705.607 493.288 705.57 495.002C705.39 499.796 705.086 503.101 702 507C696.689 511.78 692.663 512.302 685.723 512.211C680.598 511.814 677.523 509.794 674.188 506.063C670.239 500.535 670.37 494.627 671 488C673.597 478.239 681.113 470.557 689.586 465.438C714.356 452.671 747.395 451.044 770.707 467.965ZM746.688 519.812C740.185 524.442 733.32 528.246 726.245 531.929C712.861 539.023 702.822 548.108 697.75 562.562C695.11 574.756 697.003 585.558 702.813 596.375C707.91 602.491 712.87 604.88 720.813 605.902C729.35 606.164 736.553 603.64 743.028 598.094C749.545 591.176 753.265 582.958 753.227 573.444C753.227 571.523 753.227 571.523 753.227 569.562C753.217 568.18 753.206 566.797 753.195 565.414C753.192 563.988 753.189 562.561 753.187 561.135C753.179 557.397 753.16 553.658 753.137 549.92C753.117 546.099 753.108 542.278 753.098 538.457C753.076 530.971 753.042 523.486 753 516C750.845 516 748.293 518.648 746.688 519.812Z" fill="#FDFDFC"/>
<path d="M825.559 214.961C836.495 224.883 841.09 238.91 842.174 253.308C842.403 258.406 842.42 263.505 842.411 268.608C842.406 271.468 842.421 274.328 842.439 277.188C842.482 284.28 842.493 291.371 842.505 298.463C842.517 304.488 842.541 310.513 842.58 316.538C842.594 319.342 842.59 322.145 842.585 324.948C842.594 326.678 842.604 328.408 842.615 330.138C842.609 330.905 842.603 331.672 842.597 332.462C842.658 337.914 843.519 343.088 846 348C849.71 350.473 851.611 350.385 856 350C857.343 349.013 858.678 348.014 860 347C862.75 347.313 862.75 347.313 865 348C864.267 354.961 859.184 358.789 854 363C845.803 368.074 837.492 369.199 828 368C821.733 366.431 817.133 364.077 813 359C812.559 358.463 812.118 357.925 811.664 357.371C807.582 352.097 805.59 346.768 806 340C805.34 340 804.68 340 804 340C803.775 340.866 803.549 341.733 803.317 342.625C801.82 346.462 799.729 349.061 796.938 352C796.445 352.524 795.953 353.048 795.445 353.588C785.532 363.873 773.285 369.025 759 369.313C745.484 369.342 733.574 364.399 723.688 355.25C714.939 346.007 712.372 334.563 712.692 322.141C713.281 311.571 717.316 303.058 724 295C724.733 294.082 724.733 294.082 725.481 293.145C738.209 278.846 759.505 273.378 776.879 267.281C790.583 262.481 790.583 262.481 800.563 252.375C804.8 242.427 803.557 231.97 800 222C799.757 221.317 799.513 220.634 799.262 219.93C797.039 215.062 793.475 212.967 788.781 210.883C781.519 208.578 774.635 209.29 767.875 212.742C763.074 215.963 761.713 220.402 760.413 225.802C759.745 229.359 759.706 232.891 759.625 236.5C759.343 242.929 758.959 247.686 755 253C750.029 257.058 745.936 257.586 739.582 257.316C734.518 256.696 731.479 254.748 728.188 251C724.265 245.62 724.416 240.445 725 234C727.217 224.5 733.344 217.459 741.063 211.75C765.512 196.575 802.749 197.479 825.559 214.961ZM801.039 263.641C796.595 267.559 791.616 270.053 786.375 272.75C771.26 280.8 757.463 289.312 751.5 306.313C748.373 318.016 748.986 329.544 754.75 340.25C759.623 346.205 764.368 350.373 772.246 351.25C780.344 351.654 787.329 349.343 793.75 344.375C801.167 337.467 805.101 327.953 806 318C806.135 313.616 806.117 309.234 806.098 304.848C806.096 303.592 806.095 302.337 806.094 301.044C806.089 297.728 806.08 294.412 806.069 291.096C806.059 287.704 806.054 284.312 806.049 280.92C806.038 274.28 806.021 267.64 806 261C803.588 260.778 803.588 260.778 801.039 263.641Z" fill="#FDFDFD"/>
<path d="M1057 468C1063.56 473.637 1067.45 479.49 1068.31 488.109C1068.57 494.9 1068.24 500.497 1064 506C1059.77 510.518 1055.84 512.105 1049.75 512.313C1043.89 512.245 1039.33 510.176 1035.06 506.188C1033.39 502.744 1032.49 498.979 1033.46 495.203C1035.09 488.552 1035.42 480.364 1031.81 474.375C1027.67 468.945 1022.74 465.452 1016 464C1006.08 463.144 998.101 463.557 990.187 469.813C985.248 474.381 983.341 479.301 983 486C983.993 494.873 987.854 500.543 994.657 506.186C1002.53 512.285 1011.6 516.288 1020.62 520.375C1023.11 521.517 1025.6 522.665 1028.09 523.813C1029.28 524.36 1030.47 524.908 1031.69 525.473C1048.2 533.1 1066.21 541.724 1073 560C1076.65 570.402 1076.49 582.887 1072 593C1066.16 604.877 1057.33 613.349 1044.96 618.188C1022.35 625.662 997.1 624.873 975 616C971.096 613.942 967.54 611.629 964 609C963.408 608.59 962.817 608.18 962.207 607.758C955.863 603.028 951.382 595.738 950 588C949.384 581.832 949.997 576.489 953 571C957.018 566.114 961.235 563.73 967.312 562.125C973.651 561.91 978.22 563.443 983 567.625C986.452 573.45 986.337 578.523 985 585C984.345 592.181 984.613 598.076 989 604C994.023 609.742 1000.54 613.425 1008.16 614.228C1017.11 614.809 1026.37 615.35 1034 610C1034.65 609.576 1035.3 609.152 1035.98 608.715C1040.94 605.049 1042.89 601.008 1044 595C1044.95 587.243 1043.44 580.251 1038.73 573.981C1029.15 562.966 1012.99 557.454 1000.02 551.332C980.794 542.229 963.041 533.033 955.25 511.973C951.998 500.93 954.054 489.424 959.187 479.313C966.746 466.842 979.423 460.481 993.266 457.083C1015.03 452.637 1038.47 455.464 1057 468Z" fill="#FDFDFD"/>
<path d="M1124.13 201.625C1125.13 201.611 1126.13 201.597 1127.16 201.582C1141.58 201.677 1156.71 206.961 1167.27 217.062C1182.74 234.349 1185 252.178 1185 275C1152.66 275 1120.32 275 1087 275C1089.63 298.67 1092.97 319.262 1111.53 335.207C1123 343.525 1135.36 344.007 1149 343C1163.34 340.327 1172.73 331.449 1181 320C1183.31 320.33 1185.62 320.66 1188 321C1185.91 334.539 1174.19 347.923 1163.47 355.879C1146.54 367.141 1128 371.202 1108.09 367.413C1089.91 363.606 1073.36 352.896 1063.13 337.312C1049.17 314.865 1046.23 286.145 1051.96 260.602C1057.81 240.401 1067.93 221.468 1086.74 210.832C1099.04 204.192 1110.14 201.779 1124.13 201.625ZM1101.17 218.461C1090.17 231.328 1087 250.631 1087 267C1107.13 267 1127.26 267 1148 267C1149.74 261.788 1150.25 258.45 1149.88 253.188C1149.8 252.085 1149.8 252.085 1149.72 250.961C1148.69 238.396 1146.64 224.046 1136.94 215.102C1125.42 206.092 1111.32 208.836 1101.17 218.461Z" fill="#FDFDFC"/>
<path d="M680.93 214.105C689.955 221.671 694.087 230.786 695.375 242.375C694.793 248.004 693.392 253.613 689.281 257.715C683.339 262.058 678.119 262.611 671 262C665.632 260.111 662.54 257.08 660 252C659.951 250.218 659.963 248.434 660.008 246.652C660.033 245.031 660.033 245.031 660.058 243.377C660.102 241.111 660.154 238.845 660.215 236.58C660.312 229.083 660.08 222.049 655.387 215.879C648.314 210.4 641.905 209.032 633 210C624.131 212.269 617.854 216.817 612.875 224.437C600.386 246.677 599.605 276.745 606.035 301.008C610.141 315.577 616.746 328.977 629.875 337.437C641.724 343.872 654.32 344.721 667.312 341.375C679.218 337.57 688.574 329.71 695 319C697.937 319.375 697.937 319.375 701 320C701.33 320.66 701.66 321.32 702 322C701.106 324.255 700.159 326.345 699.062 328.5C698.743 329.129 698.424 329.759 698.095 330.407C695.057 336.2 691.391 341.147 687 346C686.323 346.77 685.646 347.539 684.949 348.332C673.188 360.953 658.019 367.411 641.062 369C619.284 369.704 601.16 361.7 585.312 346.875C576.019 337.263 570.802 325.746 567 313C566.68 311.973 566.361 310.945 566.031 309.887C559.961 286.872 563.165 258.835 575.144 238.164C585.829 220.668 599.742 209.442 619.516 203.578C640.528 198.689 663.263 201.409 680.93 214.105Z" fill="#FDFDFD"/>
<path d="M933.238 460.477C938.787 464.92 941.408 469.184 942.273 476.227C942.578 483.045 941.032 488.528 936.688 493.813C931.045 498.405 926.738 499.509 919.555 499.285C914.988 498.775 912.903 496.983 909.875 493.688C908 491 908 491 906.688 487.813C905.18 484.737 905.18 484.737 901.812 483.375C896.718 482.874 893.99 483.836 890 487C880.921 496.662 876.907 510.357 876.839 523.37C876.834 524.094 876.829 524.818 876.824 525.565C876.809 527.952 876.802 530.339 876.797 532.727C876.794 533.547 876.791 534.367 876.788 535.212C876.773 539.556 876.764 543.9 876.76 548.244C876.754 552.705 876.73 557.167 876.702 561.628C876.683 565.081 876.678 568.533 876.676 571.985C876.673 573.629 876.665 575.272 876.652 576.915C876.414 592.877 876.414 592.877 883 607C883 607.66 883 608.32 883 609C883.66 609.248 884.32 609.495 885 609.75C888.764 611.318 892.371 613.145 896 615C895.67 616.32 895.34 617.64 895 619C870.91 619 846.82 619 822 619C821.67 618.34 821.34 617.68 821 617C821.33 616.01 821.66 615.02 822 614C824.145 613.043 824.145 613.043 826.812 612.188C830.146 610.906 831.876 610.124 834.438 607.563C839.521 595.972 839.434 584.249 839.363 571.848C839.363 570.017 839.363 568.185 839.365 566.354C839.365 562.536 839.354 558.718 839.336 554.9C839.314 550.044 839.313 545.189 839.32 540.333C839.323 536.557 839.316 532.781 839.307 529.005C839.303 527.217 839.302 525.428 839.303 523.639C840.144 502.998 840.144 502.998 832 485C828.621 482.401 825.063 481.229 821 480C821.216 478.11 821.216 478.11 822 476C823.952 474.986 823.952 474.986 826.539 474.246C827.502 473.954 828.464 473.662 829.456 473.361C830.502 473.056 831.547 472.752 832.625 472.438C842.798 469.305 852.165 465.343 861.598 460.418C862.498 459.959 863.397 459.5 864.324 459.027C865.109 458.612 865.893 458.197 866.702 457.769C869 457 869 457 874 458C874.33 470.87 874.66 483.74 875 497C876.65 492.71 878.3 488.42 880 484C886.139 471.009 894.404 462.212 908 457C916.831 454.829 925.523 455.387 933.238 460.477Z" fill="#FDFDFD"/>
<path d="M493 203C493.495 222.8 493.495 222.8 494 243C495.98 238.05 497.96 233.1 500 228C506.33 216.863 514.282 206.788 526.812 202.359C534.539 201.09 544.568 200.407 551.391 204.664C556.694 209.067 560.504 213.817 561.336 220.832C561.434 228.291 560.812 234.018 555.504 239.562C550.462 243.988 546.174 244.372 539.715 244.262C535.691 243.874 533.928 242.795 531 240C529.075 237.435 527.264 234.833 525.516 232.144C524.176 229.891 524.176 229.891 522 229C517.268 228.778 513.135 229.411 509.312 232.312C496.959 244.437 495.061 265.753 494.871 282.123C494.864 284.322 494.863 286.52 494.867 288.719C494.866 289.898 494.865 291.077 494.864 292.292C494.864 294.769 494.865 297.247 494.87 299.724C494.875 303.489 494.87 307.254 494.863 311.019C494.864 313.44 494.865 315.861 494.867 318.281C494.865 319.393 494.863 320.505 494.861 321.65C494.594 339.179 494.594 339.179 502.125 354.437C506.221 356.664 510.498 357.846 515 359C515.495 361.475 515.495 361.475 516 364C491.25 364 466.5 364 441 364C441 362.35 441 360.7 441 359C441.664 358.827 442.328 358.654 443.012 358.477C448.124 356.85 451.397 355.4 454 350.562C458.608 338.837 458.3 326.335 458.266 313.941C458.267 312.222 458.269 310.503 458.271 308.784C458.274 305.201 458.27 301.619 458.261 298.036C458.249 293.483 458.256 288.93 458.268 284.377C458.275 280.833 458.273 277.289 458.268 273.744C458.266 272.067 458.268 270.39 458.273 268.713C458.566 250.267 458.566 250.267 453 233C452.67 232.01 452.34 231.02 452 230C450.005 229.011 450.005 229.011 447.625 228.375C446.438 228.015 446.438 228.015 445.227 227.648C444.492 227.434 443.757 227.22 443 227C442.01 226.67 441.02 226.34 440 226C440 224.35 440 222.7 440 221C440.732 220.827 441.464 220.654 442.219 220.477C455.624 216.997 468.577 211.534 481.045 205.535C482.017 205.068 482.988 204.602 483.988 204.121C484.856 203.691 485.724 203.261 486.618 202.818C489 202 489 202 493 203Z" fill="#FDFDFD"/>
<path d="M596 418C598.31 418 600.62 418 603 418C603 432.19 603 446.38 603 461C616.2 461 629.4 461 643 461C643 463.97 643 466.94 643 470C629.8 470 616.6 470 603 470C603.063 484.544 603.139 499.087 603.236 513.63C603.281 520.384 603.32 527.138 603.346 533.891C603.372 540.414 603.413 546.937 603.463 553.46C603.48 555.943 603.491 558.426 603.498 560.91C603.507 564.4 603.535 567.889 603.568 571.378C603.566 572.395 603.565 573.412 603.563 574.46C603.68 583.43 604.897 593.025 611 600C616.592 603.603 622.068 604.533 628.562 603.312C635.209 601.623 639.904 597.368 645 593C645.99 593.99 646.98 594.98 648 596C644.891 605.048 637.261 613.257 629 618C617.763 623.343 604.739 625.13 592.562 621.875C582.676 618.292 575.58 611.913 570.75 602.586C566.537 592.828 565.699 582.802 565.773 572.286C565.773 571.173 565.772 570.059 565.772 568.912C565.773 565.271 565.789 561.63 565.805 557.988C565.808 555.448 565.811 552.908 565.813 550.368C565.82 544.39 565.836 538.412 565.856 532.434C565.878 525.621 565.889 518.809 565.899 511.996C565.92 497.997 565.956 483.999 566 470C559.4 470 552.8 470 546 470C546 468.02 546 466.04 546 464C546.559 463.792 547.119 463.585 547.695 463.371C568.207 455.49 582.691 445.706 593 426C594.153 423.35 595.101 420.75 596 418Z" fill="#FEFEFD"/>
<path d="M726 541C728.701 545.052 729.255 549.458 730.061 554.195C730.515 556.626 730.515 556.626 732 560C735.189 562.016 735.189 562.016 739 563C740.746 563.578 740.746 563.578 742.527 564.168C744.215 564.673 744.215 564.673 745.938 565.188C747.081 565.532 748.224 565.876 749.402 566.23C750.688 566.611 750.688 566.611 752 567C748.157 569.245 744.036 570.103 739.75 571.125C739.005 571.307 738.26 571.489 737.492 571.676C735.662 572.121 733.831 572.561 732 573C731.734 574.253 731.469 575.506 731.195 576.797C730.839 578.448 730.482 580.099 730.125 581.75C729.951 582.575 729.777 583.4 729.598 584.25C729.337 585.449 729.337 585.449 729.07 586.672C728.913 587.405 728.756 588.138 728.594 588.894C727.971 591.104 727.089 592.982 726 595C725.163 591.709 724.331 588.417 723.5 585.125C723.262 584.188 723.023 583.251 722.777 582.285C722.552 581.389 722.326 580.493 722.094 579.57C721.78 578.329 721.78 578.329 721.459 577.063C721 575 721 575 721 573C719.721 572.732 718.442 572.464 717.125 572.188C711.999 571.055 707.007 569.568 702 568C704.707 565.293 707.263 564.899 710.938 563.875C712.184 563.522 713.431 563.169 714.715 562.805C718 562 718 562 721 562C721.416 560.103 721.416 560.103 721.84 558.168C722.206 556.508 722.572 554.848 722.938 553.188C723.12 552.354 723.302 551.521 723.49 550.662C723.667 549.86 723.845 549.057 724.027 548.23C724.19 547.492 724.352 546.754 724.519 545.993C725 544 725 544 726 541Z" fill="#FAFAF9"/>
</svg>
