<svg width="970" height="494" viewBox="0 0 970 494" fill="none" xmlns="http://www.w3.org/2000/svg">
<path d="M800 0.0405629C800.005 1.57286 800.005 1.57286 800.01 3.1361C800.091 28.0084 800.183 52.8806 800.287 77.7527C800.338 89.7808 800.384 101.809 800.422 113.837C800.455 124.322 800.495 134.808 800.543 145.293C800.568 150.843 800.59 156.394 800.603 161.944C800.616 167.173 800.638 172.401 800.667 177.629C800.676 179.544 800.682 181.459 800.684 183.373C799.906 200.891 799.906 200.891 807 216.041C810.239 217.695 813.546 218.916 817 220.041C817.99 220.371 818.98 220.701 820 221.041C820 222.361 820 223.681 820 225.041C819.205 225.225 818.409 225.409 817.59 225.599C810.392 227.331 803.271 229.231 796.176 231.345C795.142 231.652 795.142 231.652 794.088 231.964C790.577 233.007 787.069 234.061 783.566 235.13C782.247 235.524 780.928 235.917 779.609 236.31C778.433 236.667 777.257 237.024 776.046 237.391C773.148 238.009 771.722 238.084 769 237.041C768.518 234.062 768.039 231.083 767.562 228.103C767.428 227.272 767.293 226.441 767.154 225.585C766.484 221.387 765.893 217.205 765.465 212.974C765.439 209.273 765.439 209.273 764 208.041C763.671 208.646 763.343 209.252 763.004 209.876C754.937 224.087 744.778 233.454 729 238.041C714.029 241.086 698.694 237.441 686 229.041C667.395 215.233 659.634 195.566 655.539 173.564C652.511 152.37 656.133 130.35 665 111.041C665.628 109.664 665.628 109.664 666.269 108.259C670.244 100.287 675.764 94.2852 682 88.0406C682.597 87.4321 683.194 86.8237 683.809 86.1968C697.491 73.3677 714.619 71.2447 732.512 71.6929C743.381 72.2091 752.022 75.9742 761 82.0406C762.485 83.0306 762.485 83.0306 764 84.0406C763.906 78.5268 763.799 73.0134 763.683 67.5C763.645 65.6284 763.61 63.7566 763.578 61.8848C763.532 59.1787 763.474 56.473 763.414 53.7671C763.402 52.9438 763.391 52.1204 763.379 51.2722C763.167 42.7415 762.521 32.7286 756.312 26.2906C752.988 24.4936 749.691 23.8404 746 23.0406C746 21.7206 746 20.4006 746 19.0406C746.743 18.7848 747.487 18.529 748.253 18.2654C751.755 17.0542 755.254 15.8325 758.75 14.6031C759.383 14.3808 760.015 14.1585 760.667 13.9295C769.929 10.6603 778.956 7.06832 787.78 2.73417C788.52 2.37895 789.261 2.02373 790.023 1.65775C790.652 1.34435 791.28 1.03094 791.927 0.708043C794.654 -0.170207 797.151 -0.000843082 800 0.0405629ZM706.125 93.3453C690.879 115.491 689.877 148.338 694.187 173.916C697.124 189.511 702.293 204.737 715 215.041C722.618 219.819 730.52 221.377 739.406 219.544C747.487 217.095 753.141 213.02 757.648 205.837C763.555 193.614 764.163 180.224 764.238 166.919C764.242 166.24 764.246 165.56 764.251 164.86C764.271 161.256 764.286 157.652 764.295 154.048C764.304 151.1 764.325 148.154 764.357 145.207C765.401 114.917 765.401 114.917 751.238 89.2085C744.755 83.2211 737.071 80.6135 728.238 80.7632C719.611 81.8322 711.552 86.6739 706.125 93.3453Z" fill="#FDFDFD"/>
<path d="M301 284.04C303.839 286.879 303.073 294.414 303.114 298.263C303.113 300.21 303.108 302.156 303.098 304.103C303.096 305.651 303.096 305.651 303.093 307.23C303.088 310.5 303.075 313.77 303.063 317.04C303.058 319.268 303.053 321.496 303.049 323.724C303.038 329.163 303.021 334.602 303 340.04C301.02 340.04 299.04 340.04 297 340.04C296.792 339.504 296.585 338.968 296.371 338.415C283.346 304.562 283.346 304.562 256.5 281.603C243.8 276.262 231.535 275.536 218.566 280.822C208.923 285.401 203.13 291.253 199.125 301.228C196.624 309.795 196.746 319.54 200.551 327.669C211.44 345.486 232.124 353.393 250.375 361.478C300.817 383.848 300.817 383.848 311.063 409.724C316.216 426.397 314.317 443.407 307 459.04C299.092 473.936 284.888 484.063 269.059 489.232C235.077 498.215 197.138 493.034 166.641 475.642C164 474.04 164 474.04 163 473.04C162.839 470.488 162.74 467.959 162.684 465.404C162.663 464.62 162.642 463.837 162.621 463.029C162.554 460.471 162.496 457.912 162.438 455.353C162.395 453.612 162.352 451.871 162.309 450.13C162.014 437.766 161.875 425.408 162 413.04C164.31 413.04 166.62 413.04 169 413.04C169.413 414.226 169.825 415.412 170.25 416.634C179.827 443.68 192.042 467.893 219.063 480.818C231.762 486.104 245.867 485.123 258.473 480.044C267.663 475.489 273.745 467.66 277 458.04C279.98 448.495 278.555 437.785 274 429.04C263.859 412.283 241.847 404.795 224.818 397.061C176.45 375.089 176.45 375.089 166.688 349.228C161.765 335.166 162.403 318.454 168.697 305.008C176.676 288.686 189.096 278.978 206.344 272.853C237.703 263.248 272.613 268.033 301 284.04Z" fill="#FDFDFD"/>
<path d="M118 9.04053C118.456 10.2403 118.911 11.4401 119.381 12.6763C125.041 27.5654 130.763 42.4308 136.5 57.2905C136.986 58.5505 137.473 59.8104 137.959 61.0703C144.63 78.3542 151.33 95.6267 158.081 112.88C161.679 122.08 165.26 131.287 168.82 140.501C178.941 166.758 178.941 166.758 189.312 192.916C189.714 193.923 190.115 194.93 190.529 195.968C195.836 208.991 201.645 222.326 215.059 228.263C215.699 228.52 216.34 228.776 217 229.041C217 230.691 217 232.341 217 234.041C188.95 234.041 160.9 234.041 132 234.041C132 232.391 132 230.741 132 229.041C132.687 228.836 133.374 228.631 134.082 228.419C134.983 228.15 135.884 227.881 136.812 227.603C137.706 227.336 138.599 227.069 139.52 226.794C141.355 226.237 143.18 225.647 145 225.041C146.078 223.099 146.078 223.099 146.75 220.666C147.013 219.874 147.276 219.083 147.547 218.267C150.324 198.492 137.089 174.955 131 158.041C105.92 158.041 80.84 158.041 55 158.041C49.5302 172.679 49.5302 172.679 44.625 187.478C44.3788 188.265 44.1326 189.052 43.8789 189.863C40.5715 200.499 39.2703 210.494 44 221.041C47.5878 225.858 51.4548 227.255 57 229.041C57 230.691 57 232.341 57 234.041C38.19 234.041 19.38 234.041 0 234.041C0 232.391 0 230.741 0 229.041C0.556875 228.833 1.11375 228.625 1.6875 228.412C16.6993 222.351 22.0682 210.548 28.1692 196.409C30.7408 190.344 33.0284 184.181 35.2827 177.993C36.6679 174.191 38.0696 170.396 39.4688 166.599C39.758 165.813 40.0472 165.027 40.3452 164.217C43.2363 156.371 46.2045 148.555 49.1781 140.74C54.3142 127.239 59.3537 113.709 64.2195 100.108C66.839 92.8158 69.5551 85.5707 72.391 78.3591C73.9993 74.2692 75.5915 70.173 77.1847 66.0771C77.9719 64.0688 78.7677 62.0639 79.5724 60.0625C80.7026 57.2506 81.8029 54.4286 82.8984 51.603C83.2425 50.77 83.5866 49.9369 83.9411 49.0786C87.1842 40.5475 84.6629 34.1977 81.375 25.978C80.929 24.8527 80.483 23.7273 80.0234 22.5679C79.6857 21.7338 79.348 20.8998 79 20.0405C79.5524 19.885 80.1047 19.7294 80.6738 19.5691C90.8926 16.6853 101.096 13.7844 111.199 10.5144C115.797 9.04053 115.797 9.04053 118 9.04053ZM92 54.0405C87.2486 64.9177 83.2781 76.0688 79.25 87.228C78.5344 89.2039 77.8186 91.1798 77.1025 93.1555C75.0643 98.7824 73.0312 104.411 71 110.041C70.7322 110.783 70.4644 111.524 70.1885 112.289C67.7573 119.025 65.3291 125.763 62.916 132.506C62.2463 134.359 61.5665 136.208 60.8809 138.056C60.5128 139.05 60.1448 140.044 59.7656 141.068C59.4282 141.971 59.0908 142.875 58.7432 143.806C57.8948 145.964 57.8948 145.964 58 148.041C81.1 148.041 104.2 148.041 128 148.041C116.487 116.643 104.866 85.304 93 54.0405C92.67 54.0405 92.34 54.0405 92 54.0405Z" fill="#FDFDFD"/>
<path d="M552.707 338.005C566.09 349.101 570.39 364.28 572 381.041C572.138 383.872 572.164 386.698 572.174 389.533C572.18 390.34 572.187 391.148 572.194 391.98C572.208 393.719 572.22 395.459 572.23 397.198C572.246 399.957 572.27 402.715 572.295 405.474C572.365 413.312 572.426 421.15 572.477 428.988C572.509 433.795 572.55 438.602 572.597 443.41C572.613 445.234 572.625 447.058 572.634 448.883C572.646 451.438 572.67 453.993 572.697 456.548C572.698 457.292 572.698 458.037 572.699 458.803C572.768 463.83 573.415 468.25 575 473.041C580.144 474.755 585.155 474.944 590.063 472.541C590.702 472.046 591.341 471.551 592 471.041C592.99 472.361 593.98 473.681 595 475.041C589.355 483.876 581.785 490.032 571.5 492.603C563.186 494.058 556.462 493.105 549 489.041C541.673 483.179 538.154 474.639 535 466.041C534.683 466.574 534.366 467.108 534.039 467.658C526.11 480.318 515.947 489.192 501.174 492.657C487.498 495.072 472.042 493.696 460.125 486.291C450.737 479.311 443.775 471.092 441.278 459.365C439.625 445.515 441.398 433.025 449.754 421.654C462.763 406.175 482.183 400.385 500.683 394.124C518.149 388.453 518.149 388.453 531 376.041C534.399 367.766 533.462 358.491 531 350.041C528.228 343.902 525.2 339.077 519 336.041C512.449 333.614 506.938 333.094 500.313 335.228C494.097 338.629 491.404 342.431 489 349.041C488.174 351.882 487.859 354.457 487.789 357.412C487.747 358.644 487.747 358.644 487.703 359.902C487.651 361.615 487.607 363.329 487.57 365.042C487.39 369.837 487.086 373.142 484 377.041C478.689 381.82 474.663 382.343 467.723 382.251C462.598 381.854 459.523 379.835 456.188 376.103C452.239 370.575 452.37 364.667 453 358.041C455.597 348.28 463.113 340.598 471.586 335.478C496.356 322.711 529.395 321.085 552.707 338.005ZM528.688 389.853C522.185 394.483 515.32 398.287 508.245 401.969C494.861 409.064 484.822 418.148 479.75 432.603C477.11 444.797 479.003 455.598 484.813 466.416C489.91 472.532 494.87 474.92 502.813 475.943C511.35 476.204 518.553 473.68 525.028 468.134C531.545 461.217 535.265 452.999 535.227 443.484C535.227 441.563 535.227 441.563 535.227 439.603C535.217 438.22 535.206 436.837 535.195 435.455C535.192 434.028 535.189 432.602 535.187 431.176C535.179 427.437 535.16 423.699 535.137 419.961C535.117 416.14 535.108 412.319 535.098 408.498C535.076 401.012 535.042 393.526 535 386.041C532.845 386.041 530.293 388.688 528.688 389.853Z" fill="#FDFDFC"/>
<path d="M607.559 85.0015C618.495 94.9232 623.09 108.951 624.174 123.348C624.403 128.447 624.42 133.546 624.411 138.649C624.406 141.509 624.421 144.369 624.439 147.229C624.482 154.32 624.493 161.412 624.505 168.503C624.517 174.529 624.541 180.554 624.58 186.579C624.594 189.382 624.59 192.185 624.585 194.989C624.594 196.719 624.604 198.449 624.615 200.179C624.609 200.946 624.603 201.713 624.597 202.503C624.658 207.955 625.519 213.128 628 218.041C631.71 220.514 633.611 220.426 638 220.041C639.343 219.053 640.678 218.055 642 217.041C644.75 217.353 644.75 217.353 647 218.041C646.267 225.001 641.184 228.83 636 233.041C627.803 238.115 619.492 239.24 610 238.041C603.733 236.472 599.133 234.118 595 229.041C594.559 228.503 594.118 227.966 593.664 227.412C589.582 222.138 587.59 216.809 588 210.041C587.34 210.041 586.68 210.041 586 210.041C585.775 210.907 585.549 211.773 585.317 212.666C583.82 216.502 581.729 219.101 578.938 222.041C578.445 222.565 577.953 223.089 577.445 223.628C567.532 233.913 555.285 239.066 541 239.353C527.484 239.383 515.574 234.439 505.688 225.291C496.939 216.047 494.372 204.604 494.692 192.181C495.281 181.612 499.316 173.099 506 165.041C506.733 164.122 506.733 164.122 507.481 163.185C520.209 148.886 541.505 143.419 558.879 137.322C572.583 132.522 572.583 132.522 582.563 122.416C586.8 112.467 585.557 102.011 582 92.0406C581.757 91.3574 581.513 90.6742 581.262 89.9703C579.039 85.102 575.475 83.008 570.781 80.9234C563.519 78.6183 556.635 79.3304 549.875 82.7828C545.074 86.0036 543.713 90.4425 542.413 95.8424C541.745 99.3993 541.706 102.931 541.625 106.541C541.343 112.97 540.959 117.727 537 123.041C532.029 127.098 527.936 127.626 521.582 127.357C516.518 126.736 513.479 124.788 510.188 121.041C506.265 115.66 506.416 110.485 507 104.041C509.217 94.5401 515.344 87.4996 523.063 81.7906C547.512 66.6153 584.749 67.5198 607.559 85.0015ZM583.039 133.681C578.595 137.599 573.616 140.094 568.375 142.791C553.26 150.841 539.463 159.353 533.5 176.353C530.373 188.057 530.986 199.585 536.75 210.291C541.623 216.246 546.368 220.414 554.246 221.291C562.344 221.695 569.329 219.383 575.75 214.416C583.167 207.507 587.101 197.994 588 188.041C588.135 183.656 588.117 179.274 588.098 174.888C588.096 173.633 588.095 172.378 588.094 171.084C588.089 167.769 588.08 164.453 588.069 161.137C588.059 157.745 588.054 154.353 588.049 150.961C588.038 144.321 588.021 137.681 588 131.041C585.588 130.819 585.588 130.819 583.039 133.681Z" fill="#FDFDFD"/>
<path d="M839 338.041C845.562 343.677 849.453 349.531 850.309 358.15C850.567 364.941 850.241 370.538 846 376.041C841.765 380.558 837.839 382.145 831.75 382.353C825.887 382.285 821.326 380.217 817.062 376.228C815.39 372.784 814.492 369.019 815.461 365.244C817.088 358.592 817.417 350.405 813.812 344.416C809.667 338.985 804.744 335.493 798 334.041C788.085 333.184 780.101 333.598 772.187 339.853C767.248 344.421 765.341 349.341 765 356.041C765.993 364.913 769.854 370.583 776.657 376.226C784.533 382.326 793.603 386.328 802.625 390.416C805.115 391.558 807.602 392.706 810.09 393.853C811.279 394.401 812.469 394.949 813.695 395.513C830.2 403.14 848.207 411.764 855 430.041C858.65 440.443 858.489 452.928 854 463.041C848.161 474.918 839.332 483.389 826.965 488.228C804.349 495.703 779.1 494.913 757 486.041C753.096 483.983 749.54 481.669 746 479.041C745.408 478.631 744.817 478.221 744.207 477.798C737.863 473.069 733.382 465.778 732 458.041C731.384 451.873 731.997 446.53 735 441.041C739.018 436.154 743.235 433.771 749.312 432.166C755.651 431.951 760.22 433.483 765 437.666C768.452 443.49 768.337 448.564 767 455.041C766.345 462.221 766.613 468.117 771 474.041C776.023 479.783 782.538 483.466 790.163 484.268C799.109 484.85 808.367 485.39 816 480.041C816.652 479.617 817.304 479.192 817.977 478.755C822.94 475.089 824.894 471.048 826 465.041C826.951 457.284 825.444 450.292 820.73 444.021C811.145 433.007 794.988 427.494 782.023 421.373C762.794 412.269 745.041 403.074 737.25 382.013C733.998 370.971 736.054 359.465 741.187 349.353C748.746 336.882 761.423 330.522 775.266 327.124C797.032 322.677 820.474 325.505 839 338.041Z" fill="#FDFDFD"/>
<path d="M906.125 71.6655C907.127 71.6513 908.128 71.6372 909.16 71.6226C923.575 71.7173 938.713 77.0012 949.266 87.103C964.74 104.39 967 122.219 967 145.041C934.66 145.041 902.32 145.041 869 145.041C871.63 168.71 874.973 189.303 893.528 205.248C904.999 213.565 917.356 214.048 931 213.041C945.342 210.368 954.733 201.49 963 190.041C965.31 190.371 967.62 190.701 970 191.041C967.906 204.58 956.187 217.964 945.469 225.919C928.539 237.182 910.001 241.243 890.088 237.453C871.909 233.647 855.356 222.937 845.125 207.353C831.169 184.906 828.23 156.185 833.957 130.642C839.807 110.442 849.926 91.5084 868.739 80.8726C881.044 74.2323 892.138 71.8192 906.125 71.6655ZM883.172 88.5015C872.166 101.369 869 120.672 869 137.041C889.13 137.041 909.26 137.041 930 137.041C931.738 131.828 932.25 128.491 931.875 123.228C931.8 122.126 931.8 122.126 931.724 121.001C930.694 108.436 928.64 94.086 918.942 85.1421C907.415 76.1326 893.322 78.8763 883.172 88.5015Z" fill="#FDFDFC"/>
<path d="M462.93 84.146C471.955 91.712 476.087 100.827 477.375 112.416C476.793 118.045 475.392 123.653 471.281 127.755C465.339 132.099 460.119 132.651 453 132.041C447.632 130.152 444.54 127.121 442 122.041C441.951 120.259 441.963 118.475 442.008 116.693C442.033 115.072 442.033 115.072 442.058 113.417C442.102 111.152 442.154 108.886 442.215 106.621C442.312 99.1234 442.08 92.0897 437.387 85.9194C430.314 80.4406 423.905 79.0725 415 80.0405C406.131 82.3093 399.854 86.8574 394.875 94.478C382.386 116.717 381.605 146.786 388.035 171.048C392.141 185.618 398.746 199.017 411.875 207.478C423.724 213.913 436.32 214.762 449.312 211.416C461.218 207.611 470.574 199.751 477 189.041C479.937 189.416 479.937 189.416 483 190.041C483.33 190.701 483.66 191.361 484 192.041C483.106 194.296 482.159 196.385 481.062 198.541C480.743 199.17 480.424 199.799 480.095 200.447C477.057 206.241 473.391 211.188 469 216.041C468.323 216.81 467.646 217.58 466.949 218.373C455.188 230.994 440.019 237.452 423.062 239.041C401.284 239.744 383.16 231.74 367.312 216.916C358.019 207.304 352.802 195.786 349 183.041C348.68 182.013 348.361 180.986 348.031 179.927C341.961 156.912 345.165 128.876 357.144 108.205C367.829 90.7085 381.742 79.4825 401.516 73.6186C422.528 68.729 445.263 71.4493 462.93 84.146Z" fill="#FDFDFD"/>
<path d="M715.238 330.517C720.787 334.961 723.408 339.224 724.273 346.267C724.578 353.085 723.032 358.569 718.688 363.853C713.045 368.446 708.738 369.55 701.555 369.326C696.988 368.816 694.903 367.024 691.875 363.728C690 361.041 690 361.041 688.688 357.853C687.18 354.778 687.18 354.778 683.812 353.416C678.718 352.915 675.99 353.877 672 357.041C662.921 366.703 658.907 380.397 658.839 393.41C658.834 394.135 658.829 394.859 658.824 395.605C658.809 397.993 658.802 400.38 658.797 402.767C658.794 403.587 658.791 404.408 658.788 405.253C658.773 409.596 658.764 413.94 658.76 418.284C658.754 422.746 658.73 427.207 658.702 431.669C658.683 435.121 658.678 438.573 658.676 442.026C658.673 443.669 658.665 445.312 658.652 446.956C658.414 462.917 658.414 462.917 665 477.041C665 477.701 665 478.361 665 479.041C665.66 479.288 666.32 479.536 667 479.791C670.764 481.359 674.371 483.186 678 485.041C677.67 486.361 677.34 487.681 677 489.041C652.91 489.041 628.82 489.041 604 489.041C603.67 488.381 603.34 487.721 603 487.041C603.33 486.051 603.66 485.061 604 484.041C606.145 483.084 606.145 483.084 608.812 482.228C612.146 480.946 613.876 480.165 616.438 477.603C621.521 466.012 621.434 454.29 621.363 441.888C621.363 440.057 621.363 438.226 621.365 436.395C621.365 432.577 621.354 428.758 621.336 424.94C621.314 420.085 621.313 415.229 621.32 410.374C621.323 406.598 621.316 402.822 621.307 399.046C621.303 397.257 621.302 395.469 621.303 393.68C622.144 373.038 622.144 373.038 614 355.041C610.621 352.442 607.063 351.269 603 350.041C603.216 348.15 603.216 348.15 604 346.041C605.952 345.027 605.952 345.027 608.539 344.287C609.502 343.995 610.464 343.703 611.456 343.402C612.502 343.097 613.547 342.792 614.625 342.478C624.798 339.345 634.165 335.384 643.598 330.458C644.498 330 645.397 329.541 646.324 329.068C647.109 328.653 647.893 328.238 648.702 327.81C651 327.041 651 327.041 656 328.041C656.33 340.911 656.66 353.781 657 367.041C658.65 362.751 660.3 358.461 662 354.041C668.139 341.049 676.404 332.252 690 327.041C698.831 324.87 707.523 325.427 715.238 330.517Z" fill="#FDFDFD"/>
<path d="M275 73.0405C275.495 92.8405 275.495 92.8405 276 113.04C277.98 108.09 279.96 103.14 282 98.0405C288.33 86.9037 296.282 76.8288 308.812 72.3998C316.539 71.1305 326.568 70.4476 333.391 74.7045C338.694 79.1072 342.504 83.8575 343.336 90.8725C343.434 98.3317 342.812 104.059 337.504 109.603C332.462 114.029 328.174 114.413 321.715 114.302C317.691 113.914 315.928 112.835 313 110.04C311.075 107.475 309.264 104.874 307.516 102.185C306.176 99.9319 306.176 99.9319 304 99.0405C299.268 98.8188 295.135 99.452 291.312 102.353C278.959 114.477 277.061 135.793 276.871 152.164C276.864 154.362 276.863 156.561 276.867 158.759C276.866 159.938 276.865 161.117 276.864 162.332C276.864 164.81 276.865 167.287 276.87 169.765C276.875 173.53 276.87 177.295 276.863 181.06C276.864 183.481 276.865 185.901 276.867 188.322C276.865 189.433 276.863 190.545 276.861 191.691C276.594 209.22 276.594 209.22 284.125 224.478C288.221 226.704 292.498 227.887 297 229.04C297.495 231.515 297.495 231.515 298 234.04C273.25 234.04 248.5 234.04 223 234.04C223 232.39 223 230.74 223 229.04C223.664 228.868 224.328 228.695 225.012 228.517C230.124 226.89 233.397 225.44 236 220.603C240.608 208.877 240.3 196.375 240.266 183.982C240.267 182.263 240.269 180.544 240.271 178.825C240.274 175.242 240.27 171.659 240.261 168.076C240.249 163.523 240.256 158.971 240.268 154.418C240.275 150.873 240.273 147.329 240.268 143.785C240.266 142.108 240.268 140.431 240.273 138.754C240.566 120.308 240.566 120.308 235 103.04C234.67 102.05 234.34 101.06 234 100.04C232.005 99.0511 232.005 99.0511 229.625 98.4155C228.438 98.0558 228.438 98.0558 227.227 97.6889C226.492 97.4749 225.757 97.2609 225 97.0405C224.01 96.7105 223.02 96.3805 222 96.0405C222 94.3905 222 92.7405 222 91.0405C222.732 90.8677 223.464 90.695 224.219 90.517C237.624 87.0379 250.577 81.5742 263.045 75.5751C264.017 75.1087 264.988 74.6422 265.988 74.1616C266.856 73.7316 267.724 73.3016 268.618 72.8586C271 72.0405 271 72.0405 275 73.0405Z" fill="#FDFDFD"/>
<path d="M378 288.041C380.31 288.041 382.62 288.041 385 288.041C385 302.231 385 316.421 385 331.041C398.2 331.041 411.4 331.041 425 331.041C425 334.011 425 336.981 425 340.041C411.8 340.041 398.6 340.041 385 340.041C385.063 354.584 385.139 369.127 385.236 383.671C385.281 390.424 385.32 397.178 385.346 403.932C385.372 410.455 385.413 416.978 385.463 423.5C385.48 425.984 385.491 428.467 385.498 430.95C385.507 434.44 385.535 437.929 385.568 441.419C385.566 442.436 385.565 443.453 385.563 444.501C385.68 453.47 386.897 463.066 393 470.041C398.592 473.644 404.068 474.573 410.562 473.353C417.209 471.663 421.904 467.408 427 463.041C427.99 464.031 428.98 465.021 430 466.041C426.891 475.088 419.261 483.298 411 488.041C399.763 493.383 386.739 495.17 374.562 491.916C364.676 488.333 357.58 481.954 352.75 472.626C348.537 462.868 347.699 452.842 347.773 442.327C347.773 441.213 347.772 440.1 347.772 438.953C347.773 435.311 347.789 431.67 347.805 428.029C347.808 425.489 347.811 422.948 347.813 420.408C347.82 414.43 347.836 408.453 347.856 402.475C347.878 395.662 347.889 388.849 347.899 382.037C347.92 368.038 347.956 354.039 348 340.041C341.4 340.041 334.8 340.041 328 340.041C328 338.061 328 336.081 328 334.041C328.559 333.833 329.119 333.625 329.695 333.412C350.207 325.53 364.691 315.747 375 296.041C376.153 293.39 377.101 290.791 378 288.041Z" fill="#FEFEFD"/>
<path d="M508 411.041C510.701 415.092 511.255 419.498 512.061 424.236C512.515 426.667 512.515 426.667 514 430.041C517.189 432.057 517.189 432.057 521 433.041C522.746 433.619 522.746 433.619 524.527 434.208C526.215 434.713 526.215 434.713 527.938 435.228C529.081 435.572 530.224 435.916 531.402 436.271C532.688 436.652 532.688 436.652 534 437.041C530.157 439.286 526.036 440.143 521.75 441.166C521.005 441.347 520.26 441.529 519.492 441.716C517.662 442.162 515.831 442.602 514 443.041C513.734 444.293 513.469 445.546 513.195 446.837C512.839 448.489 512.482 450.14 512.125 451.791C511.951 452.616 511.777 453.441 511.598 454.291C511.337 455.489 511.337 455.489 511.07 456.712C510.913 457.446 510.756 458.179 510.594 458.934C509.971 461.145 509.089 463.023 508 465.041C507.163 461.75 506.331 458.458 505.5 455.166C505.262 454.228 505.023 453.291 504.777 452.326C504.552 451.43 504.326 450.534 504.094 449.611C503.78 448.37 503.78 448.37 503.459 447.104C503 445.041 503 445.041 503 443.041C501.721 442.772 500.442 442.504 499.125 442.228C493.999 441.095 489.007 439.609 484 438.041C486.707 435.333 489.263 434.939 492.938 433.916C494.184 433.562 495.431 433.209 496.715 432.845C500 432.041 500 432.041 503 432.041C503.416 430.144 503.416 430.144 503.84 428.208C504.206 426.548 504.572 424.888 504.938 423.228C505.12 422.395 505.302 421.561 505.49 420.703C505.667 419.9 505.845 419.098 506.027 418.271C506.19 417.533 506.352 416.794 506.519 416.033C507 414.041 507 414.041 508 411.041Z" fill="#FAFAF9"/>
</svg>
