<svg width="1408" height="768" viewBox="0 0 1408 768" fill="none" xmlns="http://www.w3.org/2000/svg">
<path d="M351 186C358.886 193.098 364.44 203.196 365.203 213.832C365.347 222.958 363.892 229.799 358 237C352.021 241.283 346.248 242.967 339 242C333.07 240.067 328.764 237.863 325.757 232.152C324.238 227.835 324.496 223.34 324.5 218.812C324.234 206.953 323.022 195.636 314 187C303.96 179.453 294.31 178.139 282 179C266.168 181.515 253.604 190.333 244.312 203.125C227.361 228.263 223.014 260.898 228.18 290.455C231.732 307.846 238.15 324.528 250 338C250.643 338.737 251.286 339.475 251.949 340.234C264.871 354.088 282.116 361.86 301 363C324.652 363.191 343.987 354.991 362 340C362.937 339.308 363.874 338.616 364.84 337.902C365.676 337.254 366.513 336.606 367.375 335.937C368.105 335.39 368.834 334.842 369.586 334.277C371.54 331.131 370.927 329.101 370.368 325.531C367.271 304.212 371.515 282.369 383.973 264.715C395.518 249.254 411.151 240.073 430 236C435.017 235.482 439.96 235.438 445 235.5C446.25 235.485 447.501 235.469 448.789 235.453C460.572 235.502 471.264 238.129 481.687 243.625C482.826 244.215 483.964 244.806 485.137 245.414C488 247 488 247 491 249C492.96 248.949 492.96 248.949 495.125 248.375C495.983 248.177 496.84 247.979 497.724 247.775C500.025 247.231 502.321 246.665 504.613 246.085C514.632 243.577 524.614 241.888 534.859 240.617C537.329 240.31 539.799 239.991 542.268 239.67C550.831 238.568 559.384 237.602 568 237C571.181 244.109 573 250.954 574.25 258.625C574.423 259.629 574.595 260.633 574.773 261.668C575.192 264.11 575.601 266.554 576 269C576.744 267.732 576.744 267.732 577.504 266.437C585.927 252.28 595.997 240.652 612.621 236.316C627.771 233.2 641.708 234.932 655 243C665.653 250.484 671.038 261.059 673.528 273.675C674.069 277.486 674.228 281.255 674.316 285.098C674.337 285.877 674.358 286.656 674.379 287.458C674.445 289.993 674.504 292.528 674.562 295.062C674.607 296.821 674.651 298.579 674.695 300.338C674.95 310.897 675.019 321.438 674.937 332C674.256 351.366 674.256 351.366 681 369C685.138 371.675 689.23 371.622 694 371C700.368 369.038 704.629 364.863 709 360C707.572 356.28 705.894 352.757 704.125 349.187C695.41 329.984 693.476 306.999 699.605 286.641C703.605 276.2 708.433 266.338 716 258C716.905 256.975 716.905 256.975 717.828 255.93C729.216 243.755 745.396 236.277 762.039 235.664C781.626 235.395 799.261 237.175 814.281 251.148C821.237 258.642 823.523 266.817 823.309 276.941C822.441 285.54 818.365 292.29 812 298C803.901 304.379 794.665 307.789 785 311C783.762 311.42 782.525 311.84 781.25 312.273C771.732 315.351 761.982 317.348 752.187 319.312C751.18 319.515 751.18 319.515 750.152 319.722C738.755 322 738.755 322 734 322C739 337.353 745.621 351.711 760.461 359.781C771.782 365.215 785.354 366.093 797.437 362.437C817.289 354.595 828.483 338.506 836.906 319.742C838.764 315.083 839.125 311.215 839.312 306.187C840.396 285.955 849.238 265.695 864.242 251.945C879.203 239.278 897.754 234.003 917.199 235.219C934.256 236.65 949.16 241.724 960.625 255.008C964.885 261.18 964.706 267.75 964 275C962.756 279.313 960.453 281.639 956.937 284.437C952.189 286.812 947.169 286.648 942 286C937.785 284.467 934.762 282.551 932 279C930.173 274.48 929.878 270.422 929.625 265.562C929.152 258.468 927.682 253.682 922.625 248.625C915.722 244.352 908.455 244.035 900.57 245.43C892.592 247.666 887.195 252.774 882.75 259.625C872.029 279.115 872.33 303.104 877.625 324.187C882.606 340.132 891.004 353.083 906 361C916.104 365.846 929.931 365.638 940.5 362.375C961.242 354.193 974.259 337.02 983.074 317.167C984.74 313.268 986.311 309.34 987.812 305.375C988.091 304.648 988.369 303.922 988.655 303.173C993.324 290.293 994.487 277.676 994.687 264.125C994.721 262.551 994.755 260.977 994.791 259.402C994.877 255.602 994.938 251.802 995 248C988.07 248 981.14 248 974 248C974 245.36 974 242.72 974 240C974.883 239.781 975.766 239.562 976.676 239.336C993.871 234.792 1007.48 226.117 1016.6 210.594C1018.49 207.097 1020.3 203.596 1022 200C1024.64 200 1027.28 200 1030 200C1030 213.2 1030 226.4 1030 240C1041.55 240 1053.1 240 1065 240C1065 242.64 1065 245.28 1065 248C1053.45 248 1041.9 248 1030 248C1030.06 260.962 1030.14 273.923 1030.24 286.885C1030.28 292.904 1030.32 298.923 1030.35 304.943C1030.37 310.759 1030.41 316.575 1030.46 322.391C1030.48 324.603 1030.49 326.815 1030.5 329.026C1029.7 349.327 1029.7 349.327 1038.47 366.73C1042.55 370.124 1046.59 370.382 1051.73 370.254C1057.72 369.583 1062.91 366.012 1068 363C1069.62 365.187 1069.62 365.187 1071 368C1069.11 374.88 1063.26 379.138 1057.28 382.555C1045.3 388.249 1032.08 390.454 1019.27 385.965C1009.34 381.746 1002.02 374.503 997.789 364.531C995.6 357.509 994.711 350.933 994.805 343.59C994.809 342.31 994.809 342.31 994.813 341.005C994.824 338.316 994.849 335.627 994.875 332.937C994.885 331.1 994.894 329.262 994.902 327.424C994.924 322.949 994.959 318.475 995 314C994.34 314 993.68 314 993 314C992.928 314.793 992.856 315.586 992.781 316.402C991.739 321.2 989.717 325.204 987.5 329.562C987.051 330.449 986.603 331.336 986.141 332.25C980.146 343.866 972.575 354.14 964 364C963.389 364.708 962.778 365.415 962.148 366.145C950.613 378.588 933.11 387.55 916.09 388.336C893.779 388.727 876.302 383.275 859.66 367.828C851.551 359.567 842.555 344.887 841.812 333C841.874 332.34 841.936 331.68 842 331C841.34 331 840.68 331 840 331C839.691 332.176 839.381 333.351 839.062 334.562C832.094 355.337 815.655 371.433 797 382C781.894 389.48 762.327 390.728 746.137 386.156C733.712 381.576 724.22 375.499 715 366C714.256 366.745 713.512 367.49 712.746 368.258C711.84 369.163 710.934 370.068 710 371C709.352 371.657 708.703 372.315 708.035 372.992C698.635 381.964 686.728 387.707 673.687 388.312C664.499 388.071 655.856 385.719 649.195 379.246C638.687 368.106 638.711 353.156 638.726 338.521C638.727 336.352 638.713 334.184 638.697 332.015C638.651 325.859 638.626 319.702 638.619 313.546C638.614 309.75 638.589 305.955 638.554 302.16C638.544 300.736 638.542 299.312 638.547 297.888C638.59 286.036 637.922 270.921 629.711 261.48C624.231 256.739 617.542 254.593 610.336 254.727C601.899 255.714 593.67 259.667 588 266C580.183 278.57 578.684 289.833 578.699 304.328C578.695 305.925 578.691 307.521 578.686 309.118C578.679 312.456 578.679 315.795 578.684 319.133C578.69 323.381 578.673 327.628 578.65 331.875C578.635 335.171 578.634 338.467 578.637 341.764C578.637 343.328 578.632 344.892 578.622 346.456C578.564 356.646 578.557 367.063 583.812 376.125C586.406 378.348 588.706 379.176 592 380C592 381.65 592 383.3 592 385C571.21 385 550.42 385 529 385C529.33 383.35 529.66 381.7 530 380C530.928 379.567 531.856 379.134 532.812 378.687C537.301 376.311 538.351 373.667 540 369C542.375 359.253 542.31 349.401 542.301 339.441C542.305 337.763 542.309 336.085 542.314 334.407C542.321 330.908 542.321 327.41 542.316 323.911C542.31 319.462 542.327 315.013 542.35 310.565C542.365 307.104 542.366 303.644 542.362 300.184C542.363 298.545 542.368 296.907 542.378 295.268C542.603 275.826 542.603 275.826 534 259C524.771 253.039 513.918 254.704 503.676 256.832C464.324 266.028 431.59 290.777 402.562 317.75C401.912 318.352 401.262 318.953 400.592 319.573C396.737 323.196 393.215 326.98 389.77 330.992C386.789 334.374 383.583 337.522 380.375 340.687C379.733 341.325 379.091 341.962 378.43 342.619C376.621 344.414 374.811 346.207 373 348C369.612 351.36 369.612 351.36 366.324 354.816C349.757 372.491 325.417 386.802 300.835 388.177C269.18 388.75 243.438 383.563 219.937 360.902C198.631 339.966 188.061 311.608 187.708 281.92C187.624 268.47 187.959 255.944 192 243C192.367 241.718 192.733 240.435 193.098 239.152C197.461 224.848 203.755 212.008 214 201C214.443 200.51 214.887 200.021 215.343 199.517C229.337 184.154 246.763 174.8 267 170C267.955 169.773 268.91 169.546 269.894 169.312C297.487 163.993 328.869 167.828 351 186ZM419 253C413.687 260.865 409.799 268.602 408 278C407.773 279.093 407.546 280.186 407.312 281.312C406.813 287.203 406.926 293.093 407 299C410.444 296.77 413.77 294.449 417.039 291.969C428.254 283.466 439.798 276.001 452 269C452.738 268.574 453.477 268.147 454.238 267.708C458.147 265.451 462.066 263.214 466 261C460.474 252.359 454.079 246.638 444 244C434.561 242.602 425.15 245.609 419 253ZM742 256C732.482 268.289 730.82 283.151 730.875 298.187C730.871 299.267 730.867 300.347 730.863 301.459C730.865 302.497 730.866 303.536 730.867 304.605C730.868 305.545 730.869 306.485 730.871 307.454C730.989 309.785 731.34 311.769 732 314C751.325 311.058 773.258 307.252 786 291C791.525 282.252 791.701 272.762 789.789 262.832C787.855 255.89 783.93 251.07 778 247C764.292 239.798 751.796 245.269 742 256Z" fill="#FDFDFD"/>
<path d="M386.395 408.836C408.531 408.069 431.176 414.013 448.375 428.188C455.721 435.084 459.585 443.777 460.25 453.75C460.119 459.531 459.073 464.732 455.09 469.09C448.81 474.663 445.013 475.423 436.562 475.336C431.595 474.868 428.478 473.574 425 470C420.726 464.712 420.819 459.721 421.043 453.16C420.927 444.62 418.385 435.729 412.504 429.387C403.527 421.032 393.271 419.52 381.469 419.723C371.222 420.161 362.279 424.133 354 430C353.314 430.478 352.628 430.957 351.922 431.449C337.967 442.355 331.504 461.304 328.441 478.055C325.515 504.215 328.817 528.975 344.5 550.563C345.972 552.398 347.47 554.213 349 556C349.624 556.736 350.248 557.472 350.891 558.23C362.833 571.201 380.785 578.443 398.195 579.219C417.698 579.771 436.516 574.929 451.477 561.832C456.178 557.264 460.262 552.38 464 547C466.962 547.613 468.381 548.254 471 550C466.606 561.583 459.61 570.354 451 579C450.23 579.804 449.461 580.609 448.668 581.438C431.672 598.115 407.772 603.41 384.675 603.3C358.042 602.741 333.887 592.921 315 574C296.211 554.23 289.448 527.923 289.785 501.242C290.565 474.772 301.514 450.604 320.563 432.375C334.816 419.395 353.987 412.097 373 410C373.92 409.89 374.841 409.781 375.789 409.668C379.32 409.295 382.853 409.079 386.395 408.836Z" fill="#FDFDFD"/>
<path d="M524 456C526.118 458.118 525.154 462.897 525.158 465.827C525.163 466.754 525.168 467.681 525.173 468.636C525.184 470.658 525.192 472.681 525.199 474.703C525.211 477.911 525.23 481.12 525.252 484.328C525.314 493.454 525.368 502.58 525.401 511.707C525.422 517.284 525.458 522.861 525.502 528.439C525.516 530.558 525.525 532.678 525.528 534.798C525.14 556.128 525.14 556.128 534.375 574.687C541.27 580.762 547.24 581.487 556.25 581.402C563.88 580.584 570.623 577.248 575.5 571.25C585.228 556.044 585.486 537.73 585.336 520.26C585.312 517.305 585.316 514.351 585.322 511.396C586.244 491.976 586.244 491.976 579 475C576.527 472.836 573.974 471.381 571 470C571 468.68 571 467.36 571 466C572.16 465.733 573.321 465.465 574.517 465.19C578.825 464.197 583.134 463.203 587.443 462.21C589.307 461.78 591.171 461.35 593.036 460.921C595.717 460.303 598.397 459.685 601.078 459.066C601.911 458.875 602.743 458.683 603.601 458.485C604.381 458.305 605.162 458.125 605.966 457.94C606.992 457.703 606.992 457.703 608.038 457.462C609.371 457.148 610.698 456.808 612.018 456.445C615.008 455.774 617.949 455.941 621 456C622.116 461.359 622.121 466.518 622.082 471.962C622.079 472.949 622.076 473.937 622.072 474.955C622.065 477.094 622.056 479.234 622.045 481.373C622.027 484.767 622.017 488.16 622.009 491.553C621.984 501.2 621.949 510.847 621.904 520.493C621.877 526.401 621.86 532.308 621.849 538.215C621.843 540.458 621.833 542.702 621.819 544.945C621.8 548.094 621.793 551.242 621.789 554.391C621.78 555.305 621.771 556.22 621.762 557.161C621.775 565.579 622.304 574.775 627 582C629.944 584.842 633.111 585.851 637 587C637 588.65 637 590.3 637 592C632.004 593.436 627.006 594.86 622.004 596.272C620.304 596.754 618.606 597.239 616.909 597.727C614.461 598.431 612.01 599.123 609.559 599.812C608.807 600.031 608.056 600.25 607.282 600.475C602.7 601.749 598.756 602.219 594 602C589.043 591.635 588.315 580.278 587 569C586.671 569.678 586.343 570.356 586.004 571.055C578.464 585.807 568.018 595.738 552.332 601.055C538.797 604.894 523.452 603.817 511 597C498.745 588.181 492.636 576.639 490 562C489.495 556.774 489.441 551.581 489.461 546.336C489.451 544.886 489.439 543.437 489.425 541.987C489.393 538.214 489.382 534.442 489.378 530.669C489.37 524.628 489.333 518.587 489.286 512.545C489.274 510.465 489.274 508.384 489.276 506.303C489.498 490.451 489.498 490.451 484 476C481.213 473.427 478.463 471.539 475 470C475 468.68 475 467.36 475 466C481.012 464.567 487.026 463.143 493.042 461.727C495.087 461.245 497.132 460.76 499.176 460.272C502.118 459.571 505.063 458.878 508.008 458.187C508.917 457.969 509.827 457.75 510.764 457.525C515.244 456.482 519.365 455.621 524 456Z" fill="#FDFDFD"/>
<path d="M1187.47 249.945C1197.58 259.275 1201.88 273.784 1202.46 287.255C1202.55 290.987 1202.55 294.717 1202.54 298.449C1202.55 300.081 1202.56 301.712 1202.57 303.343C1202.61 307.595 1202.62 311.846 1202.62 316.098C1202.63 322.909 1202.67 329.721 1202.71 336.532C1202.73 338.885 1202.73 341.237 1202.72 343.59C1202.64 357.776 1202.64 357.776 1206.5 371.25C1210.41 373.989 1214.37 373.397 1219 373C1219.33 374.98 1219.66 376.96 1220 379C1218.46 379.966 1216.92 380.922 1215.37 381.875C1214.52 382.409 1213.66 382.942 1212.77 383.492C1203.94 388.293 1192.43 388.816 1182.78 386.09C1176.41 383.104 1171.84 378.801 1169.42 372.133C1168.99 370.801 1168.58 369.465 1168.19 368.125C1167.97 367.437 1167.76 366.748 1167.53 366.039C1167.01 364.363 1166.5 362.682 1166 361C1165.59 361.713 1165.17 362.426 1164.75 363.16C1157.26 375.582 1146.8 383.54 1132.69 387.438C1116.81 390.109 1101.52 387.635 1088.03 378.695C1079.91 372.39 1075.68 362.959 1074 353C1073.07 343.852 1074.24 334.475 1079.62 326.813C1080.72 325.512 1081.84 324.242 1083 323C1083.6 322.344 1084.21 321.688 1084.83 321.012C1097.33 308.725 1115.5 304.053 1131.87 299.285C1150.25 294.856 1150.25 294.856 1164 283C1166.69 274.918 1165.13 265.757 1162 258C1158.51 251.705 1154.13 247.629 1147.18 245.422C1139.88 244.01 1132.07 243.906 1125.58 247.801C1121.17 251.142 1119.46 254.783 1118 260C1117.68 263.817 1117.56 267.614 1117.44 271.442C1116.82 276.419 1115.18 278.936 1111.5 282.25C1107.2 285.26 1103.1 285.5 1098 285C1093.71 284.015 1090.76 282.758 1087.62 279.625C1084.47 274.537 1082.99 270.033 1084 264C1087.49 254.048 1093.27 248.229 1102.44 243.313C1128.92 230.644 1163.96 231.447 1187.47 249.945ZM1161.25 297.375C1155.92 300.634 1150.36 303.201 1144.69 305.813C1131.96 311.75 1119.01 318.263 1112.62 331.438C1109.55 339.923 1109.31 350.432 1113.12 358.688C1116.72 364.686 1121.2 368.279 1127.87 370.496C1136.29 372.486 1143.76 370.329 1151.19 366.25C1160.8 358.563 1164.85 348.57 1166.29 336.549C1166.93 329.83 1167.15 323.185 1167.12 316.438C1167.13 315.474 1167.13 314.51 1167.14 313.518C1167.13 307.287 1166.74 301.186 1166 295C1164.2 295 1162.73 296.428 1161.25 297.375Z" fill="#FDFDFD"/>
<path d="M754.125 464.688C765.43 473.8 771.498 484.78 774 499C774.417 504.576 774.441 510.13 774.441 515.719C774.453 517.31 774.467 518.9 774.481 520.491C774.517 524.649 774.538 528.807 774.553 532.965C774.578 539.616 774.618 546.268 774.675 552.92C774.691 555.219 774.695 557.519 774.698 559.818C774.397 574.183 774.397 574.183 779.125 587.313C783.201 589.705 785.412 588.827 790 588C790.66 588.66 791.32 589.32 792 590C791.912 593.326 791.289 594.693 789 597.125C779.171 603.268 767.029 603.659 755.824 601.344C749.299 599.047 745.014 595.17 742.008 588.945C740.593 585.375 739.594 581.801 739 578C738.227 578.99 738.227 578.99 737.438 580C736.633 580.99 735.829 581.98 735 583C734.526 583.616 734.051 584.232 733.562 584.867C725.641 594.655 714.826 600.002 702.688 602.75C687.416 603.785 671.458 603.047 659 593C650.947 585.564 646.518 577.375 645.75 566.438C645.988 554.955 650.089 545.911 658.152 537.848C668.716 528.691 682.097 524.325 695.324 520.598C718.211 515.356 718.211 515.356 736.293 502.133C738.91 494.24 737.362 484.45 734 477C730.416 470.372 726.114 467.29 719 465C712.591 463.142 706.038 463.288 699.859 465.883C696.075 468.157 692.91 471.577 691.348 475.738C690.942 478.377 690.935 480.971 690.914 483.636C690.81 489.26 690.68 494.283 687.062 498.875C682.928 502.705 678.561 503.887 673 504C667.099 503.551 663.037 501.413 659 497C655.849 491.365 655.62 486.468 657.215 480.281C660.242 471.487 667.734 465.898 675.75 461.813C698.605 451.991 732.893 449.85 754.125 464.688ZM732.582 516.16C731.205 516.851 731.205 516.851 729.8 517.555C727.793 518.568 725.787 519.58 723.78 520.593C714.95 525.046 714.95 525.046 710.812 526.973C698.316 532.873 687.887 540.282 682.625 553.438C680.857 563.516 682.419 571.032 687.688 579.813C693.852 585.644 700.533 588.214 709 588C716.91 587.36 723.267 583.866 728.758 578.18C743.001 560.502 739.078 535.032 738 514C736.066 514 734.267 515.312 732.582 516.16Z" fill="#FDFDFD"/>
<path d="M1135.73 468.264C1152.02 481.202 1161.17 499.364 1163.75 519.875C1164.81 534.932 1163.04 550.496 1156 564C1155.56 564.857 1155.12 565.714 1154.66 566.598C1145.41 583.174 1130.5 594.584 1112.5 600.066C1089.8 605.607 1066.78 603.641 1046.24 592.105C1029.73 581.375 1018.78 564.867 1014.52 545.695C1010.46 524.746 1013.73 503.757 1025.11 485.648C1037.28 468.623 1053.55 458.916 1074.11 455.393C1095.25 452.52 1118.17 455.421 1135.73 468.264ZM1062 474C1048.1 494.162 1048.07 521.696 1052 545C1055.48 562.188 1061 580.437 1076 591C1082.63 595.05 1090.49 594.767 1098 594C1101.36 593.125 1104.08 591.864 1107 590C1107.92 589.416 1107.92 589.416 1108.86 588.82C1120.51 580.127 1123.98 564.592 1126 551C1127.53 524.645 1124.87 495.025 1107.99 473.426C1102.01 467.071 1094.76 463.001 1085.94 462.688C1076.5 462.843 1068.08 466.819 1062 474Z" fill="#FDFDFD"/>
<path d="M941.328 455.645C943 457 943 457 943.746 460.684C944.212 467.463 944.106 474.272 944.062 481.063C944.057 482.419 944.053 483.775 944.049 485.131C944.037 488.421 944.021 491.71 944 495C944.66 495 945.32 495 946 495C946.135 494.002 946.135 494.002 946.273 492.984C947.217 489.11 948.835 485.799 950.625 482.25C950.98 481.544 951.334 480.839 951.7 480.111C954.51 474.663 957.57 469.311 962 465C962.66 465 963.32 465 964 465C964 464.34 964 463.68 964 463C973.049 456.3 981.842 454.027 993 455C998.209 456.23 1002.29 459.211 1006 463C1009.1 468.536 1009.88 474.031 1008.5 480.262C1007.02 485.359 1005.25 488.603 1001 492C995.199 493.934 989.102 493.994 983.562 491.375C980.806 488.82 978.98 486.181 977 483C973.526 481.263 969.798 481.539 966 482C957.269 486.448 954.126 494.202 951 503C948.215 513.032 947.474 522.855 947.312 533.188C947.281 534.652 947.249 536.116 947.216 537.58C947.154 540.439 947.102 543.298 947.059 546.157C947.01 549.374 946.945 552.589 946.875 555.805C946.292 574.798 946.292 574.798 953 592C955.041 593.613 955.041 593.613 957.25 594.438C957.956 594.746 958.663 595.054 959.391 595.371C959.922 595.579 960.453 595.786 961 596C960.67 597.32 960.34 598.64 960 600C953.117 600.026 946.235 600.043 939.352 600.055C937.016 600.06 934.679 600.067 932.343 600.075C907.425 600.166 907.425 600.166 897 599C897.324 597.086 897.324 597.086 898 595C898.928 594.546 899.856 594.093 900.812 593.625C904.829 591.577 905.984 590.032 908 586C910.849 576.167 910.292 565.777 910.266 555.648C910.267 553.78 910.269 551.912 910.271 550.043C910.274 546.145 910.27 542.247 910.261 538.349C910.249 533.371 910.256 528.394 910.268 523.417C910.275 519.565 910.273 515.713 910.268 511.861C910.266 510.026 910.268 508.192 910.273 506.357C910.278 503.788 910.27 501.219 910.259 498.65C910.263 497.905 910.267 497.16 910.271 496.392C910.21 488.65 909.278 480.973 904 475C901.427 473.418 898.791 472.151 896 471C896.33 469.35 896.66 467.7 897 466C898.589 465.607 898.589 465.607 900.209 465.206C904.157 464.228 908.104 463.247 912.051 462.265C913.756 461.841 915.461 461.418 917.167 460.996C919.625 460.388 922.082 459.776 924.539 459.164C925.296 458.978 926.052 458.791 926.831 458.599C930.084 457.786 933.141 456.946 936.279 455.74C939 455 939 455 941.328 455.645Z" fill="#FDFDFD"/>
<path d="M838 420C840.31 420 842.62 420 845 420C845.33 432.54 845.66 445.08 846 458C863.325 458.495 863.325 458.495 881 459C881 461.64 881 464.28 881 467C880 468 880 468 876.674 468.114C875.198 468.113 873.722 468.108 872.246 468.098C871.471 468.096 870.695 468.095 869.896 468.093C867.41 468.088 864.924 468.075 862.438 468.062C860.756 468.057 859.074 468.053 857.393 468.049C853.262 468.038 849.131 468.021 845 468C845.085 480.214 845.18 492.428 845.288 504.641C845.337 510.313 845.384 515.985 845.422 521.657C845.459 527.136 845.505 532.615 845.558 538.094C845.577 540.179 845.592 542.264 845.603 544.349C845.62 547.281 845.649 550.212 845.681 553.144C845.683 553.996 845.685 554.849 845.688 555.727C845.817 565.111 847.013 573.498 853 581C857.741 585.323 862.609 585.389 868.785 585.359C873.863 584.792 877.677 582.585 882 580C883.328 579.322 884.659 578.652 886 578C886.99 579.65 887.98 581.3 889 583C881.435 593.946 872.182 599.98 859.047 602.586C847.354 604.175 835.492 603.159 825.562 596.25C814.849 587.228 811.718 576.035 810.397 562.565C809.481 551.348 809.752 540.057 809.812 528.812C809.819 526.223 809.826 523.634 809.832 521.045C809.893 503.349 810.185 485.678 811 468C804.07 468 797.14 468 790 468C789.67 465.36 789.34 462.72 789 460C790.172 459.648 791.344 459.296 792.551 458.934C812.041 452.895 825.893 443.121 835.539 424.871C836.364 423.25 837.186 421.627 838 420Z" fill="#FDFDFD"/>
<path d="M507.938 267.75C519.42 285.844 523.192 308.089 519.129 329.207C514.73 348.435 504.103 365.765 487.375 376.719C474.317 384.159 460.843 388.411 445.812 388.312C444.9 388.307 443.987 388.301 443.047 388.295C422.363 387.929 405.04 380.739 390.062 366.375C386.992 363.162 384.48 359.682 382 356C386.298 346.526 393.785 338.037 400.5 330.187C401.016 329.583 401.532 328.979 402.064 328.356C405.735 324.132 405.735 324.132 408 323C408.17 323.643 408.34 324.286 408.516 324.949C415.729 353.226 415.729 353.226 434.477 374.68C442.019 378.813 449.444 380.047 457.805 377.848C466.022 374.674 471.589 367.917 475.375 360.195C486.168 334.434 483.806 305.08 474.988 279.16C474 276 474 276 474 273C476.248 272.017 478.499 271.038 480.75 270.062C481.701 269.646 481.701 269.646 482.672 269.221C490.334 265.908 500.297 263.198 507.938 267.75Z" fill="#FDFDFD"/>
</svg>
