<svg width="1408" height="768" viewBox="0 0 1408 768" fill="none" xmlns="http://www.w3.org/2000/svg">
<path d="M401.008 464.316C408.823 470.921 414.478 479.356 415.812 489.687C415.874 490.781 415.936 491.874 416 493C416.66 493 417.32 493 418 493C418.266 492.121 418.531 491.242 418.805 490.336C424.037 475.734 435.619 466.158 449.113 459.453C462.08 454.029 477.098 454.004 490.297 458.793C494.149 460.513 497.633 462.46 501 465C501.824 465.607 502.647 466.214 503.496 466.84C514.371 476.222 517.821 491.32 519 505C519.299 510.737 519.299 516.482 519.305 522.225C519.309 525.044 519.326 527.863 519.346 530.682C519.401 538.686 519.432 546.689 519.456 554.693C519.472 559.618 519.503 564.542 519.541 569.467C519.553 571.327 519.559 573.187 519.559 575.047C519.03 593.656 519.03 593.656 527.238 609.598C530.262 612.005 533.457 613.473 537 615C537 616.32 537 617.64 537 619C513.24 619 489.48 619 465 619C465 617.68 465 616.36 465 615C465.675 614.72 466.351 614.441 467.047 614.152C473.33 611.328 476.348 609.409 479 603C482.923 592.058 482.163 580.1 482.168 568.637C482.171 566.956 482.175 565.275 482.178 563.594C482.184 560.083 482.186 556.572 482.185 553.062C482.185 548.597 482.199 544.133 482.216 539.668C482.227 536.199 482.229 532.731 482.229 529.262C482.23 527.618 482.234 525.973 482.242 524.329C482.472 500.645 482.472 500.645 471.547 480.402C465.963 475.34 459.27 474.865 452 475C442.591 476.287 435.794 480.323 429.812 487.625C420.153 501.469 419.683 517.152 419.699 533.41C419.695 535.071 419.691 536.731 419.686 538.391C419.679 541.852 419.679 545.312 419.684 548.772C419.69 553.178 419.673 557.584 419.65 561.991C419.635 565.413 419.634 568.835 419.637 572.258C419.637 573.881 419.632 575.505 419.622 577.129C419.467 594.164 419.467 594.164 427 609C430.174 611.381 433.399 613.338 437 615C437 616.32 437 617.64 437 619C413.24 619 389.48 619 365 619C366 614 366 614 367.707 612.812C368.749 612.41 368.749 612.41 369.812 612C374.448 609.898 376.948 607.776 378.807 602.871C380.692 596.904 381.438 591.589 381.404 585.35C381.411 584.443 381.418 583.536 381.425 582.601C381.443 579.634 381.439 576.667 381.434 573.699C381.438 571.615 381.443 569.53 381.449 567.446C381.458 563.088 381.456 558.729 381.446 554.371C381.435 548.817 381.455 543.263 381.484 537.709C381.502 533.406 381.502 529.104 381.496 524.801C381.496 522.755 381.502 520.709 381.515 518.662C381.893 498.105 381.893 498.105 372.242 480.594C365.568 475.85 357.307 474.15 349.281 475.453C343.146 476.924 338.848 478.865 334 483C333.34 483 332.68 483 332 483C331.719 483.589 331.438 484.178 331.148 484.785C330.097 486.812 328.931 488.57 327.625 490.437C321.77 499.67 319.848 510.934 319.855 521.698C319.851 522.446 319.848 523.193 319.845 523.963C319.835 526.419 319.833 528.876 319.832 531.332C319.829 533.051 319.825 534.769 319.822 536.488C319.816 540.086 319.814 543.685 319.815 547.283C319.815 551.876 319.801 556.469 319.784 561.062C319.773 564.611 319.771 568.16 319.771 571.71C319.77 573.402 319.766 575.094 319.758 576.786C319.471 593.976 319.471 593.976 327 609C330.155 611.447 333.38 613.329 337 615C337 616.32 337 617.64 337 619C313.24 619 289.48 619 265 619C265.33 617.35 265.66 615.7 266 614C268.145 612.699 268.145 612.699 270.812 611.687C274.39 610.039 276.627 608.898 278.5 605.375C282.673 594.066 282.296 582.404 282.266 570.535C282.267 568.651 282.269 566.768 282.271 564.884C282.274 560.951 282.27 557.019 282.261 553.086C282.249 548.076 282.256 543.065 282.268 538.055C282.275 534.169 282.273 530.283 282.268 526.398C282.266 524.552 282.268 522.706 282.273 520.859C283.128 502.291 283.128 502.291 276 486C272.565 482.565 268.624 482.002 264 481C264.33 479.35 264.66 477.7 265 476C265.607 475.815 266.213 475.63 266.838 475.44C279.928 471.4 292.327 466.813 304.51 460.507C305.406 460.051 306.303 459.595 307.227 459.125C308.006 458.715 308.785 458.305 309.588 457.883C312 457 312 457 318 457C318.33 467.56 318.66 478.12 319 489C322.465 483.06 322.465 483.06 326 477C333.875 466.811 345.936 458.995 358.609 456.402C373.539 454.631 388.431 455.079 401.008 464.316Z" fill="#FCFCFC"/>
<path d="M285 140C298.588 139.93 312.177 139.877 325.765 139.845C332.077 139.829 338.389 139.808 344.7 139.774C350.808 139.741 356.916 139.723 363.024 139.715C365.337 139.71 367.651 139.699 369.964 139.683C395.589 139.509 425.245 140.364 445.156 158.969C455.307 170.152 458.96 182.867 458.383 197.656C457.49 210.565 450.938 222.015 441.684 230.832C433.687 237.293 424.522 241.34 415 245C415.579 245.181 416.157 245.361 416.753 245.547C436.7 251.831 456.198 259.269 466.535 278.918C473.552 294.731 473.632 310.76 468 327C461.607 342.014 450.204 351.363 435.382 357.558C417.016 364.808 397.406 364.477 377.965 364.547C375.306 364.566 372.648 364.587 369.989 364.609C364.462 364.651 358.935 364.684 353.407 364.709C347.019 364.737 340.631 364.78 334.243 364.83C328.066 364.878 321.889 364.921 315.712 364.96C313.093 364.976 310.473 364.994 307.854 365.012C304.217 365.037 300.579 365.054 296.941 365.069C295.856 365.078 294.771 365.086 293.653 365.094C292.668 365.097 291.683 365.1 290.668 365.103C289.381 365.109 289.381 365.109 288.067 365.116C286 365 286 365 284 364C284 362.35 284 360.7 284 359C284.724 358.804 285.449 358.608 286.195 358.406C293.507 356.145 297.387 353.773 301 347C303.766 340.02 304.463 333.415 304.512 325.965C304.53 324.89 304.548 323.814 304.566 322.706C304.622 319.117 304.655 315.527 304.688 311.938C304.72 309.374 304.753 306.811 304.787 304.248C305.056 282.237 305.099 260.223 305.122 238.211C305.125 235.597 305.129 232.983 305.133 230.368C305.149 219.245 305.114 208.123 305 197C304.994 196.303 304.987 195.606 304.98 194.887C304.936 190.391 304.85 185.897 304.742 181.402C304.729 180.324 304.715 179.245 304.701 178.134C304.407 168.668 302.635 157.188 296 150C292.496 147.811 288.911 146.304 285 145C285 143.35 285 141.7 285 140ZM345 148C343.343 151.313 343.862 155.014 343.871 158.657C343.869 159.553 343.867 160.449 343.865 161.372C343.861 164.343 343.864 167.314 343.867 170.285C343.867 172.343 343.866 174.4 343.864 176.457C343.863 180.773 343.865 185.088 343.87 189.403C343.875 194.947 343.872 200.491 343.866 206.036C343.862 210.285 343.864 214.533 343.866 218.782C343.867 220.827 343.866 222.872 343.864 224.917C343.861 227.769 343.865 230.621 343.871 233.473C343.869 234.327 343.867 235.18 343.864 236.059C343.511 239.836 343.511 239.836 345 243C366.052 244.299 387.504 244.861 404.438 230.75C414.007 221.549 417.04 209.053 417.375 196.063C417.046 183.193 414.322 170.602 405.562 160.813C392.521 148.681 376.705 147.668 359.812 147.875C358.369 147.885 356.926 147.894 355.482 147.902C351.988 147.924 348.494 147.959 345 148ZM345 251C345 285.65 345 320.3 345 356C384.652 357.672 384.652 357.672 418 340C423.281 333.912 426.285 327.849 428 320C428.171 319.226 428.341 318.453 428.517 317.655C431.38 301.923 429.513 284.632 420.605 271.172C412.409 260.083 400.28 254.812 387 252C373.054 250.732 359.004 251 345 251Z" fill="#FCFCFC"/>
<path d="M787.562 465.027C798.22 473.653 802.923 486.819 805 500C805.531 506.611 805.441 513.252 805.441 519.879C805.453 521.782 805.467 523.685 805.481 525.589C805.517 530.567 805.538 535.545 805.553 540.523C805.578 548.492 805.618 556.46 805.675 564.428C805.691 567.188 805.695 569.949 805.698 572.709C805.406 591.185 805.406 591.185 812 608C814.49 610.09 817.084 611.582 820 613C820.743 613.373 821.485 613.745 822.25 614.129C822.827 614.416 823.405 614.704 824 615C824 616.32 824 617.64 824 619C800.24 619 776.48 619 752 619C752 617.35 752 615.7 752 614C753.856 613.381 753.856 613.381 755.75 612.75C759.369 611.359 761.699 610.239 764 607C767.231 599.375 768.149 591.887 768.161 583.647C768.166 582.829 768.171 582.012 768.176 581.17C768.191 578.478 768.198 575.786 768.203 573.094C768.206 572.168 768.209 571.242 768.212 570.288C768.227 565.383 768.236 560.478 768.24 555.573C768.246 550.541 768.27 545.51 768.298 540.478C768.317 536.58 768.322 532.681 768.324 528.782C768.327 526.929 768.335 525.077 768.348 523.224C768.782 501.305 768.782 501.305 759.398 482.258C752.46 475.869 744.97 475.458 735.918 475.691C727.193 476.379 720.812 480.575 715 487C707.898 496.705 704.857 506.99 704.839 518.92C704.834 519.703 704.829 520.486 704.824 521.293C704.809 523.875 704.802 526.457 704.797 529.039C704.791 530.844 704.785 532.649 704.78 534.454C704.769 538.238 704.763 542.023 704.76 545.807C704.754 550.632 704.73 555.457 704.702 560.281C704.683 564.012 704.678 567.742 704.676 571.472C704.673 573.249 704.665 575.027 704.652 576.804C704.205 594.617 704.205 594.617 712 610C715.233 611.915 718.551 613.513 722 615C722 616.32 722 617.64 722 619C697.91 619 673.82 619 649 619C649 617.68 649 616.36 649 615C649.996 614.598 649.996 614.598 651.012 614.188C657.452 611.33 661.263 608.591 664 602C665.914 596.394 666.292 591.452 666.275 585.552C666.28 584.63 666.285 583.709 666.29 582.76C666.304 579.729 666.303 576.699 666.301 573.668C666.305 571.55 666.309 569.431 666.314 567.313C666.321 562.877 666.321 558.441 666.316 554.006C666.31 548.34 666.327 542.675 666.35 537.009C666.365 532.635 666.366 528.26 666.363 523.886C666.363 521.798 666.368 519.71 666.378 517.622C666.391 514.694 666.384 511.765 666.372 508.837C666.38 507.986 666.388 507.135 666.395 506.259C666.333 499.031 665.176 492.008 660.875 486.063C657.152 483.392 653.396 482.178 649 481C649 479.35 649 477.7 649 476C649.923 475.732 650.846 475.464 651.797 475.188C666.186 470.906 680.941 466.061 693.711 458.031C696 457 696 457 702 457C702 468.22 702 479.44 702 491C702.66 491 703.32 491 704 491C704.186 490.216 704.371 489.433 704.562 488.625C709.978 474.969 721.308 465.5 734.34 459.449C752.052 452.622 771.777 454.221 787.562 465.027Z" fill="#FCFCFC"/>
<path d="M541 203C541.002 203.592 541.005 204.184 541.007 204.794C541.067 219.243 541.142 233.693 541.236 248.143C541.281 255.131 541.32 262.119 541.346 269.107C541.372 275.857 541.413 282.606 541.463 289.356C541.48 291.925 541.491 294.494 541.498 297.063C541.507 300.675 541.535 304.286 541.568 307.897C541.566 308.948 541.565 309.999 541.563 311.082C541.693 321.438 543.301 331.766 550 340C555.244 345.106 561.054 347.353 568.254 347.417C568.975 347.403 569.695 347.389 570.438 347.375C571.19 347.365 571.942 347.355 572.717 347.344C581.635 347.094 588.543 344.337 595 338C602.249 328.673 604.435 317.9 604.75 306.312C604.784 305.258 604.818 304.204 604.853 303.117C605.122 291.812 604.979 280.503 604.801 269.197C604.767 267.035 604.737 264.873 604.712 262.711C604.672 259.629 604.612 256.547 604.547 253.465C604.537 252.544 604.528 251.623 604.518 250.674C604.331 243.518 602.865 237.431 599.438 231.125C595.793 227.948 591.642 227.09 587 226C587 224.35 587 222.7 587 221C587.85 220.709 588.7 220.417 589.576 220.117C593.533 218.754 597.487 217.381 601.438 216C602.146 215.752 602.855 215.505 603.585 215.25C612.637 212.073 621.501 208.786 630 204.287C633.838 202.301 636.676 201.557 641 202C642.661 203.66 642.135 205.634 642.145 207.919C642.155 209.517 642.155 209.517 642.166 211.147C642.17 212.916 642.17 212.916 642.174 214.721C642.18 215.955 642.187 217.189 642.194 218.46C642.208 221.152 642.22 223.844 642.23 226.536C642.245 230.798 642.269 235.06 642.295 239.322C642.366 251.444 642.426 263.566 642.477 275.688C642.505 282.378 642.541 289.068 642.583 295.758C642.61 299.988 642.628 304.217 642.639 308.447C642.651 311.713 642.675 314.979 642.697 318.244C642.698 319.407 642.698 320.57 642.699 321.768C642.776 330.416 642.918 339.294 649 346C653.121 348.368 657.376 349.938 662 351C662 352.65 662 354.3 662 356C661.029 356.225 661.029 356.225 660.038 356.455C656.962 357.173 653.887 357.898 650.812 358.625C649.689 358.891 648.565 359.156 647.407 359.43C639.064 361.432 630.825 363.684 622.64 366.258C615.306 368.479 615.306 368.479 611 367C609.383 361.835 608.461 356.874 607.875 351.5C607.789 350.779 607.702 350.059 607.613 349.316C607.104 344.847 606.917 340.497 607 336C606.34 336 605.68 336 605 336C604.745 336.888 604.49 337.776 604.227 338.691C599.929 350.285 588.884 358.633 578.07 363.715C563.17 369.952 546.902 370.84 531.82 364.707C520.493 358.855 512.296 350.659 507.711 338.613C505.274 330.927 503.887 323.796 503.826 315.716C503.82 315.013 503.813 314.309 503.806 313.585C503.792 312.066 503.78 310.547 503.77 309.028C503.754 306.613 503.73 304.198 503.705 301.783C503.635 294.919 503.575 288.056 503.523 281.192C503.491 276.983 503.45 272.775 503.403 268.566C503.387 266.974 503.375 265.382 503.366 263.79C503.8 245.9 503.8 245.9 497 230C493.099 227.872 489.385 226.664 485 226C485 224.35 485 222.7 485 221C485.834 220.714 486.669 220.428 487.528 220.133C491.439 218.786 495.346 217.427 499.25 216.062C499.953 215.817 500.657 215.572 501.382 215.319C511.191 211.885 520.743 208.194 530.021 203.467C531.113 202.932 531.113 202.932 532.227 202.387C532.841 202.069 533.455 201.752 534.088 201.424C536.816 200.819 538.489 201.917 541 203Z" fill="#FCFCFC"/>
<path d="M1096 214C1109.29 225.796 1112.89 241.857 1114 259C1114.1 263.933 1114.08 268.862 1114.04 273.796C1114.03 276.266 1114.02 278.735 1114.01 281.205C1113.98 288.219 1113.95 295.234 1113.9 302.249C1113.88 306.559 1113.86 310.869 1113.85 315.18C1113.84 316.809 1113.83 318.438 1113.82 320.068C1112.86 334.639 1112.86 334.639 1117.36 347.737C1120.05 349.811 1122.68 349.825 1126 350C1128.8 349.044 1129.68 348.647 1131 346C1132.65 346.66 1134.3 347.32 1136 348C1135.17 353.915 1132.29 357.024 1128 361C1119.56 367.23 1112.17 369.781 1101.74 368.539C1094.83 367.181 1088.88 364.102 1084 359C1080.72 353.636 1078.46 348.103 1077 342C1076.55 342.592 1076.11 343.183 1075.64 343.793C1072.32 348.138 1069.07 352.318 1065 356C1064.39 356.554 1063.78 357.109 1063.15 357.68C1050.21 368.64 1034.3 370.248 1018 369C1005.8 366.794 994.759 360.763 987 351C979.609 339.021 977.964 325.397 980.652 311.668C985.455 297.259 996.26 287.598 1009.5 280.875C1019.87 275.825 1030.77 271.966 1041.75 268.477C1059.76 263.252 1059.76 263.252 1073 251C1076.68 241.701 1075.33 232.192 1072 223C1068.62 216.697 1063.88 212.222 1057 210C1049.93 209.274 1042.78 208.95 1036.55 212.734C1032.25 216.248 1030.43 220.79 1029 226C1028.66 229.721 1028.63 233.456 1028.61 237.191C1028.4 244.018 1026.46 249.254 1021.87 254.375C1017.04 257.107 1012.09 258.468 1006.53 257.625C1001.57 256.167 998.13 254.235 995 250C991.677 243.893 991.739 238.572 993.144 231.859C996.419 220.914 1005.1 213.92 1014.77 208.57C1039.44 196.567 1073.57 197.829 1096 214ZM1072.21 264.102C1066.76 268.385 1060.88 271.325 1054.69 274.375C1039.1 282.288 1024.92 290.55 1019 308C1016.72 317.148 1016.6 328.487 1021 337C1025.66 343.652 1030.91 349.111 1039 351C1048.04 352.264 1056.3 350.354 1063.74 345.047C1070.71 339.136 1076.2 332.303 1077.22 322.977C1078.44 302.305 1077.68 281.679 1077 261C1075.11 261 1073.59 262.953 1072.21 264.102Z" fill="#FCFCFC"/>
<path d="M953.687 468.188C965.587 477.926 970.509 492.135 972 507C972.307 512.661 972.319 518.328 972.336 523.996C972.344 526.793 972.365 529.59 972.388 532.387C972.444 539.326 972.48 546.266 972.516 553.205C972.547 559.093 972.586 564.981 972.636 570.87C972.656 573.609 972.664 576.349 972.672 579.088C972.723 587.311 972.931 594.983 975 603C978.576 604.192 981.241 604.259 985 604C986.33 603.196 986.33 603.196 987.687 602.375C988.451 601.921 989.214 601.468 990 601C992.312 601.812 992.312 601.812 994 603C993.295 609.913 988.136 613.812 983 618C974.569 622.665 965.468 624.289 956.062 621.938C948.525 619.463 943.773 614.988 940.125 608C938.34 604.07 937.003 600.194 936 596C935.041 597.27 934.083 598.541 933.125 599.812C932.324 600.874 932.324 600.874 931.508 601.957C930.292 603.605 929.136 605.296 928 607C927.34 607 926.68 607 926 607C925.67 607.99 925.34 608.98 925 610C913.262 620.385 898.422 624.631 883 623.875C869.561 622.923 857.629 618.097 848.187 608.375C839.078 597.717 837.182 585.595 838 572C840.013 560.554 846.404 550.668 855 543C859.507 539.956 864.142 537.437 869 535C869.929 534.528 870.859 534.056 871.816 533.57C879.981 529.652 888.62 527.018 897.235 524.293C916.609 518.945 916.609 518.945 931 506C934.898 498.38 933.553 489.061 931.312 481.125C928.948 474.228 926.528 470.16 919.937 466.688C913.393 463.616 906.727 462.874 899.812 465.188C894.378 467.506 891.294 470.899 888.75 476.188C886.601 481.864 886.473 487.572 886.415 493.579C886.306 499.159 885.406 503.362 881.5 507.645C875.25 512.511 869.735 512.738 862 512C856.982 509.581 853.5 506.001 851 501C850.316 492.558 850.375 485.267 855 478C855.378 477.399 855.755 476.799 856.145 476.18C862.762 467.263 874.601 461.969 885 459C885.986 458.702 886.972 458.404 887.988 458.098C909.972 452.384 935.002 454.854 953.687 468.188ZM931.001 518.641C924.35 523.091 917.509 526.879 910.375 530.5C896.712 537.528 883.808 545.308 878.062 560.438C874.749 572.488 875.625 583.715 881.516 594.734C885.204 600.364 889.533 603.257 896 605C905.291 605.839 913.928 605.758 921.594 600.078C929.298 593.507 934.326 587.132 936 577C936.268 572.29 936.233 567.591 936.195 562.875C936.192 561.519 936.189 560.163 936.187 558.806C936.179 555.262 936.16 551.718 936.137 548.173C936.117 544.547 936.108 540.92 936.098 537.293C936.076 530.195 936.042 523.098 936 516C934.038 516 932.578 517.582 931.001 518.641Z" fill="#FCFCFC"/>
<path d="M789.016 216.793C795.736 224.268 796.719 231.572 796.469 241.266C795.762 246.893 793.869 250.761 789.438 254.313C788.538 255.049 788.538 255.049 787.621 255.801C782.81 259.36 776.715 258.593 771 258C766.768 256.448 763.91 254.441 761.5 250.625C760.761 246.747 760.495 242.961 761.488 239.105C763.33 231.527 762.283 224.842 758.488 218.098C755.079 213.293 750.486 211.547 745 210C742.343 209.763 739.84 209.62 737.188 209.625C736.132 209.624 736.132 209.624 735.056 209.623C729.185 209.747 725.016 211.129 720 214C719.01 214.33 718.02 214.66 717 215C715.881 216.646 715.881 216.646 715 219C714.74 219.581 714.479 220.163 714.211 220.762C711.398 227.452 711.13 233.055 713.375 239.938C720.795 256.35 743.074 263.52 758.5 270.25C777.581 278.577 793.086 286.915 801.863 306.973C805.036 316.794 803.883 329.641 800 339C799.756 339.67 799.513 340.341 799.262 341.031C794.798 351.694 784.302 359.486 774 364C749.901 372.141 722.002 371.191 699 360C689.9 355.097 682.701 349.478 678.691 339.73C676.983 332.983 676.69 325.238 679.316 318.746C682.1 314.207 685.796 311.276 690.375 308.625C695.749 307.345 700.826 307.039 705.813 309.688C709.888 312.644 712.4 315.201 714 320C714.12 323.25 714.155 326.245 713.5 329.438C712.163 336.288 712.701 342.804 716 349C721.333 355.641 728.68 359.216 737.059 360.255C747.318 361.149 756.573 360.606 765 354C770.479 347.703 771.374 341.522 771.266 333.355C770.731 326.6 768.3 321.93 763.563 317.125C752.396 307.926 737.856 302.377 724.875 296.25C717.236 292.634 709.813 289.057 703 284C701.988 283.265 700.976 282.53 699.934 281.773C691.567 275.432 684.216 267.034 682.211 256.383C680.891 241.472 682.131 229.823 692 218C702.06 206.835 718.061 202.06 732.707 201.066C752.691 200.663 773.838 202.288 789.016 216.793Z" fill="#FCFCFC"/>
<path d="M1118.84 468.043C1125.67 474.235 1128.98 481.635 1129.44 490.75C1129.32 497.071 1127.71 501.875 1124 507C1118.84 511.319 1114.75 512.318 1108.09 512.219C1102.62 511.646 1098.48 509.151 1095 505C1093.83 502.661 1093.87 501.226 1093.87 498.625C1093.87 497.469 1093.87 497.469 1093.87 496.289C1094 494.057 1094.44 492.156 1095 490C1095.51 482.385 1094.05 477.141 1089.87 470.75C1084.1 465.223 1076.95 462.896 1069 463C1061.76 463.58 1055.58 465.185 1050 470C1044.37 477.215 1044.14 484.086 1045 493C1046.13 496.237 1047.69 498.487 1050 501C1050.46 501.505 1050.92 502.011 1051.4 502.531C1062.43 513.064 1078.52 518.614 1092.2 524.852C1102.74 529.695 1112.26 534.266 1121 542C1121.65 542.543 1122.3 543.085 1122.96 543.645C1131.46 551.283 1135.3 562.115 1136.18 573.27C1136.57 585.73 1132.51 597.431 1124.12 606.75C1114.79 615.39 1102.4 620.046 1090 622C1088.86 622.193 1088.86 622.193 1087.69 622.391C1066.14 625.401 1041.97 621.568 1024 609C1016.61 602.958 1011.62 597.039 1010.63 587.379C1010.4 580.306 1010.24 573.623 1015 568C1020.38 563.046 1025.39 561.607 1032.62 561.727C1037.32 562.266 1041.2 564.002 1044.39 567.543C1047.31 572.02 1047.43 575.752 1047 581C1046.83 581.639 1046.67 582.279 1046.5 582.938C1044.88 589.654 1045.64 595.979 1049 602C1053.13 608.26 1058.78 611.246 1065.84 613.617C1075.65 615.353 1086.16 614.78 1095 610C1099.44 606.601 1102.43 602.368 1104 597C1104.8 590.108 1105.19 582.873 1101.43 576.785C1092.29 565.346 1078.22 559.316 1065.12 553.562C1046.08 545.187 1024.38 535.316 1016.06 514.75C1012.81 503.264 1013.21 492.2 1018.25 481.289C1025.16 469.058 1035.15 461.991 1048.51 457.934C1051.67 457.175 1054.8 456.54 1058 456C1059.09 455.805 1059.09 455.805 1060.2 455.605C1079.59 452.651 1102.95 456.182 1118.84 468.043Z" fill="#FCFCFC"/>
<path d="M943.742 213.035C952.056 220.029 958.186 228.55 959.25 239.594C959.529 245.938 958.835 250.828 955 256C950.588 260.62 946.638 262.164 940.312 262.375C935.164 262.325 931.898 261.494 927.621 258.68C923.727 254.644 922.815 250.958 922.848 245.481C922.933 242.328 923.063 239.18 923.205 236.029C923.421 227.654 922.015 221.65 916.625 215.125C910.528 210.189 905.359 209.341 897.676 209.527C889.173 210.621 881.771 214.851 876.52 221.637C862.383 243.622 861.852 272.104 866.746 297.035C870.23 311.762 877.096 327.788 890.332 336.09C896.866 339.687 903.523 342.334 911 343C912.27 343.122 912.27 343.122 913.566 343.246C925.797 343.834 937.541 339.689 947 332C951.098 327.963 954.808 323.789 958 319C960.31 319.33 962.62 319.66 965 320C964.41 324.427 962.659 327.882 960.438 331.688C960.078 332.304 959.719 332.921 959.349 333.556C949.045 350.86 934.713 362.172 915.18 367.477C896.43 371.979 876.224 368.09 859.818 358.207C854.63 354.763 850.306 350.464 846 346C845.336 345.367 844.672 344.734 843.988 344.082C828.631 328.448 824.552 303.606 824.639 282.701C825.045 258.827 833.022 237.682 849.438 220.188C873.477 197.474 916.634 192.916 943.742 213.035Z" fill="#FCFCFC"/>
<path d="M610 457C611.143 469.701 611.177 482.39 611.23 495.134C611.246 498.998 611.27 502.862 611.295 506.726C611.365 517.703 611.426 528.679 611.477 539.655C611.508 546.396 611.55 553.137 611.597 559.878C611.613 562.435 611.625 564.991 611.634 567.548C611.646 571.123 611.67 574.697 611.697 578.271C611.698 579.315 611.698 580.359 611.699 581.434C611.8 591.734 612.737 602.59 620.25 610.313C623.726 612.446 627.138 613.691 631 615C630.67 616.65 630.34 618.3 630 620C593.37 619.505 593.37 619.505 556 619C556 617.35 556 615.7 556 614C557.052 613.753 558.104 613.505 559.188 613.25C562.929 612.134 565.291 610.929 568 608C572.007 600.026 573.149 592.766 573.161 583.962C573.166 583.061 573.171 582.159 573.176 581.23C573.191 578.254 573.198 575.277 573.203 572.301C573.209 570.225 573.215 568.148 573.22 566.072C573.231 561.718 573.237 557.365 573.24 553.011C573.246 547.451 573.27 541.891 573.298 536.331C573.317 532.04 573.322 527.75 573.324 523.459C573.327 521.411 573.335 519.362 573.348 517.313C573.365 514.437 573.363 511.561 573.356 508.685C573.366 507.85 573.375 507.015 573.384 506.154C573.334 498.973 572.12 492.019 567.938 486.063C563.912 483.237 559.746 482.134 555 481C555.33 479.35 555.66 477.7 556 476C556.933 475.707 556.933 475.707 557.886 475.409C573.083 470.6 594.656 456.421 610 457Z" fill="#FCFCFC"/>
<path d="M603.188 395.957C608.7 399.129 612.883 402.885 615 409C616.868 417.538 615.27 423.629 611.312 431.25C607.562 435.71 602.798 438.943 597 440C588.221 440.709 581.333 439.777 574.25 434.375C569.342 429.826 566.861 424.166 566.5 417.5C566.822 411.158 569.321 405.989 573.375 401.188C582.152 393.873 592.287 391.12 603.188 395.957Z" fill="#FCFCFC"/>
</svg>
