<svg width="1408" height="768" viewBox="0 0 1408 768" fill="none" xmlns="http://www.w3.org/2000/svg">
<path d="M832 215C840.567 222.583 846.87 233.303 848.125 244.75C848.32 252.778 846.549 260.116 841.488 266.477C830.789 277.429 811.989 278.494 797.688 281C795.72 281.351 793.753 281.703 791.786 282.055C780.364 284.092 768.934 286.083 757.475 287.896C753.108 288.507 753.108 288.507 749 290C753.219 307.255 758.641 324.371 774 335C787.161 342.875 800.415 344.885 815.5 341.938C835.373 336.73 847.484 322.191 859.646 306.712C867.306 297.027 875.725 288.056 886.164 281.375C886.77 280.921 887.376 280.468 888 280C888 279.34 888 278.68 888 278C887.261 277.434 886.523 276.868 885.762 276.285C878.945 270.645 874.168 260.563 873.117 251.84C872.594 239.151 874.429 228.139 882.688 218.125C895.293 205.096 913.416 201.154 930.938 200.75C948.37 201.125 966.096 204.267 979.434 216.336C984.987 222.236 987.662 228.81 988.312 236.875C988.124 242.926 986.486 248.153 982.688 252.875C977.385 257.068 973.255 258.593 966.531 258.34C961.614 257.68 957.885 256.108 954.547 252.375C951.25 247.101 952.236 242.882 953.461 237.023C954.59 230.691 954.016 225.208 950.75 219.625C946.374 213.446 941.322 210.58 934 209C924.795 207.87 917.038 210.106 909.062 214.688C904.267 220.064 902.206 226.276 902.562 233.457C903.889 241.165 908.065 247.104 914.083 251.956C917.316 254.221 920.672 255.991 924.211 257.711C924.906 258.053 925.6 258.396 926.316 258.749C931.468 261.28 936.649 263.752 941.832 266.219C944.074 267.288 946.315 268.358 948.556 269.427C950.068 270.146 951.581 270.861 953.095 271.573C970.239 279.64 985.789 288.568 992.609 307.211C994.137 311.937 994.54 316.303 994.5 321.25C994.494 322.075 994.489 322.9 994.483 323.75C994.157 335.031 990.069 345.009 982 353C963.27 368.394 940.93 369.692 917.535 367.801C901.107 366.015 884.735 358.755 874.215 345.758C869.867 339.467 868.497 332.55 869 325C870.162 318.892 872.182 314.932 877.176 311.152C881.973 308.122 886.404 307.518 892 308C896.231 309.016 899.234 310.254 902.375 313.313C906.242 319.708 905.978 323.909 904.598 331.094C903.476 338.253 904.674 344.522 908.734 350.594C911.316 353.335 913.665 354.65 917.062 356.25C918.627 357 918.627 357 920.223 357.766C928.086 361.26 938.588 361.307 946.977 359.281C949.16 358.351 951.035 357.326 953 356C954.093 355.299 955.186 354.598 956.312 353.875C961.102 348.751 963.19 342.867 963.438 335.875C962.992 326.972 959.448 321.033 953 315C943.334 307.704 931.929 302.938 921.062 297.75C918.252 296.404 915.442 295.057 912.634 293.704C910.899 292.868 909.162 292.036 907.422 291.21C906.637 290.832 905.852 290.454 905.043 290.065C904.357 289.738 903.671 289.41 902.964 289.073C901 288 901 288 898.899 286.367C897.062 284.754 897.062 284.754 894.578 285.063C878.088 291.059 866.157 311.342 856.768 325.252C851.975 332.342 846.984 338.845 841 345C840.196 345.866 839.391 346.733 838.562 347.625C821.604 363.343 803.684 368.939 780.664 368.34C761.034 367.42 744.466 359.018 731 345C730.41 344.417 729.819 343.835 729.211 343.234C713.269 326.355 709.266 302.246 709.684 279.98C710.191 266.842 712.978 253.739 719 242C719.491 241.02 719.982 240.041 720.488 239.031C730.006 221.405 745.013 209.394 764.085 203.539C786.452 197.248 813.47 200.5 832 215ZM758.953 221.34C745.965 239.03 746.4 260.113 747 281C756.788 280.536 766.209 279.077 775.812 277.209C778.192 276.749 780.575 276.314 782.959 275.879C797.231 273.288 797.231 273.288 808.938 265.188C814.671 256.327 815.098 247.301 814 237C813.12 233.044 811.826 229.61 810 226C809.457 224.911 809.457 224.911 808.902 223.801C805.126 217.081 799.748 211.728 792.438 209.063C779.045 205.383 767.589 211.204 758.953 221.34Z" fill="#FDFDFD"/>
<path d="M590 395C602.597 394.953 615.194 394.918 627.791 394.896C633.643 394.886 639.494 394.872 645.345 394.849C651.005 394.827 656.666 394.815 662.326 394.81C664.472 394.807 666.617 394.799 668.762 394.789C694.854 394.661 724.572 395.433 745 414C745.686 414.594 746.372 415.189 747.078 415.801C757.997 425.865 763.074 438.978 764.195 453.535C764.809 468.736 759.989 483.067 750.25 494.75C740.793 504.798 728.463 511.376 715 514C723.999 531.603 733.024 549.175 742.606 566.469C744.064 569.116 745.501 571.773 746.934 574.434C753.76 587.163 753.76 587.163 762 599C762.576 599.773 763.152 600.547 763.746 601.344C769.13 608.06 775.33 611.364 783 615C783 616.32 783 617.64 783 619C775.57 619.588 768.146 619.988 760.698 620.263C758.172 620.378 755.648 620.535 753.127 620.735C733.004 622.292 733.004 622.292 726.61 617.035C722.117 611.683 719.228 605.577 716.432 599.214C714.625 595.159 712.545 591.287 710.445 587.378C707.959 582.713 705.614 577.978 703.25 573.25C701.814 570.4 700.376 567.552 698.937 564.704C697.997 562.844 697.059 560.984 696.122 559.123C692.219 551.389 688.203 543.718 684.146 536.064C676 520.688 676 520.688 676 518C667.09 518 658.18 518 649 518C648.906 536.207 648.862 554.42 649.209 572.624C649.236 574.188 649.257 575.751 649.271 577.315C649.384 588.944 649.822 600.948 658 610C660.538 611.628 660.538 611.628 663.25 612.813C664.142 613.231 665.034 613.65 665.953 614.082C666.629 614.385 667.304 614.688 668 615C668 616.32 668 617.64 668 619C642.59 619 617.18 619 591 619C591 617.68 591 616.36 591 615C591.779 614.654 591.779 614.654 592.574 614.301C600.291 610.692 604.05 606.713 607.203 598.793C609.633 590.275 609.149 581.37 609.145 572.595C609.148 571.037 609.152 569.479 609.155 567.921C609.164 563.706 609.167 559.49 609.167 555.275C609.168 552.637 609.17 549.998 609.173 547.359C609.182 538.138 609.186 528.917 609.185 519.696C609.185 511.126 609.195 502.555 609.211 493.985C609.224 486.606 609.229 479.228 609.229 471.849C609.229 467.451 609.231 463.053 609.242 458.656C609.252 454.515 609.252 450.375 609.245 446.235C609.243 444.724 609.246 443.214 609.252 441.703C609.403 422.894 609.403 422.894 602 406C598.355 402.855 594.694 401.014 590 400C590 398.35 590 396.7 590 395ZM649 403C649 438.31 649 473.62 649 510C679.461 511.789 679.461 511.789 706 500C706.612 499.522 707.225 499.044 707.855 498.551C717.264 490.305 721.551 477.055 723 465C724.059 448.413 721.939 430.996 710.805 417.926C699.821 406.206 685.931 402.453 670.27 401.904C667.533 401.867 664.799 401.863 662.062 401.875C661.131 401.871 660.2 401.867 659.24 401.863C658.348 401.865 657.455 401.866 656.535 401.867C655.335 401.869 655.335 401.869 654.11 401.871C651.808 401.921 651.808 401.921 649 403Z" fill="#FDFDFD"/>
<path d="M168 395C218.49 395 268.98 395 321 395C322.304 398.913 323.304 402.07 323.961 406.024C324.121 406.972 324.281 407.919 324.446 408.896C324.611 409.902 324.776 410.908 324.945 411.945C325.12 412.993 325.295 414.04 325.475 415.119C325.842 417.326 326.206 419.533 326.569 421.741C327.124 425.121 327.689 428.5 328.254 431.879C328.61 434.026 328.965 436.173 329.32 438.32C329.489 439.331 329.658 440.341 329.832 441.382C329.985 442.324 330.139 443.265 330.297 444.235C330.433 445.061 330.57 445.886 330.71 446.737C331 449 331 449 331 453C329.02 453 327.04 453 325 453C324.492 451.949 323.984 450.899 323.461 449.816C317.939 438.492 317.939 438.492 311 428C310.515 427.34 310.031 426.68 309.531 426C300.632 414.832 286.69 407.372 273 404C257.782 402.38 242.224 403 227 403C227 434.68 227 466.36 227 499C257.298 501.07 257.298 501.07 284.957 490.223C290.296 484.414 293.268 476.62 295 469C296.65 469 298.3 469 300 469C300 491.77 300 514.54 300 538C298.35 538 296.7 538 295 538C294.654 536.84 294.654 536.84 294.301 535.656C291.09 525.403 287.694 517.433 278 512C262.452 505.486 242.775 507.509 227 507C227 541.65 227 576.3 227 612C277.295 613.002 277.295 613.002 317.651 589.442C324.956 581.63 329.476 572.564 334 563C334.995 560.998 335.994 558.997 337 557C338.65 557.33 340.3 557.66 342 558C340.135 578.52 335.65 598.721 332 619C277.88 619 223.76 619 168 619C168 617.68 168 616.36 168 615C168.664 614.709 169.328 614.417 170.012 614.117C177.389 610.692 181.674 607.692 184.75 599.938C186.601 594.675 187.127 589.751 187.14 584.177C187.143 583.504 187.146 582.83 187.149 582.136C187.158 579.886 187.16 577.635 187.161 575.385C187.166 573.768 187.171 572.151 187.176 570.534C187.189 566.146 187.196 561.757 187.2 557.368C187.203 554.622 187.207 551.876 187.212 549.131C187.225 540.529 187.235 531.927 187.239 523.326C187.243 513.417 187.261 503.508 187.29 493.6C187.312 485.928 187.322 478.257 187.323 470.585C187.324 466.01 187.33 461.434 187.348 456.858C187.364 452.548 187.366 448.239 187.358 443.928C187.357 442.355 187.361 440.781 187.371 439.207C187.441 427.466 187.312 414.248 179 405C175.717 402.47 172.126 400.66 168 400C168 398.35 168 396.7 168 395Z" fill="#FDFEFD"/>
<path d="M485.438 463.313C496.603 471.858 501.624 483.29 504 497C504.556 503.612 504.441 510.265 504.441 516.895C504.453 518.814 504.467 520.734 504.481 522.654C504.517 527.684 504.538 532.713 504.553 537.743C504.578 545.78 504.618 553.816 504.675 561.852C504.691 564.632 504.695 567.412 504.698 570.191C504.051 591.838 504.051 591.838 513.312 610.313C516.459 612.288 519.543 613.644 523 615C523 616.32 523 617.64 523 619C499.24 619 475.48 619 451 619C451 617.68 451 616.36 451 615C451.603 614.697 452.207 614.394 452.828 614.082C459.908 610.371 463.529 606.843 466.387 599.355C467.968 593.282 468.151 587.063 468.161 580.818C468.166 580.043 468.171 579.268 468.176 578.469C468.191 575.927 468.198 573.386 468.203 570.844C468.206 569.966 468.209 569.089 468.212 568.185C468.227 563.537 468.236 558.889 468.24 554.241C468.246 549.485 468.27 544.73 468.298 539.974C468.317 536.278 468.322 532.582 468.324 528.885C468.327 527.135 468.334 525.384 468.348 523.633C468.685 500.866 468.685 500.866 459 481C451.665 474.923 444.307 474.223 435 475C425.658 476.966 418.453 481.719 413.215 489.731C406.174 502.826 405.543 516.137 405.602 530.637C405.6 532.41 405.597 534.184 405.593 535.957C405.588 539.651 405.595 543.345 405.609 547.038C405.626 551.749 405.616 556.459 405.598 561.169C405.587 564.823 405.591 568.477 405.599 572.131C405.601 573.867 405.598 575.603 405.591 577.339C405.504 594.223 405.504 594.223 413 609C416.128 611.887 418.978 613.621 423 615C423 616.32 423 617.64 423 619C399.24 619 375.48 619 351 619C351 617.68 351 616.36 351 615C351.675 614.709 352.351 614.417 353.047 614.117C359.541 611.133 363.059 608.854 365.795 602.012C369.001 592.149 368.434 581.964 368.398 571.715C368.4 569.647 368.403 567.579 368.407 565.511C368.412 561.194 368.405 556.876 368.391 552.558C368.374 547.045 368.384 541.533 368.402 536.02C368.413 531.755 368.409 527.49 368.401 523.226C368.399 521.194 368.402 519.162 368.409 517.13C368.417 514.283 368.405 511.436 368.388 508.59C368.394 507.764 368.4 506.938 368.407 506.087C368.33 498.93 367.13 491.944 362.875 486.063C359.152 483.391 355.396 482.178 351 481C351 479.35 351 477.7 351 476C351.643 475.794 352.286 475.589 352.949 475.377C374.469 468.763 374.469 468.763 394.559 458.797C398 457 398 457 404 457C404.33 467.23 404.66 477.46 405 488C407.31 484.37 409.62 480.74 412 477C428.936 455.562 461.939 447.855 485.438 463.313Z" fill="#FEFEFE"/>
<path d="M901.633 467.813C913.114 477.153 917.695 490.4 919.338 504.591C920.617 517.418 920.179 530.384 920.079 543.26C919.816 566.215 919.816 566.215 920.309 589.16C920.331 589.891 920.354 590.622 920.377 591.376C920.619 595.883 921.636 599.155 924 603C927.11 604.555 929.563 604.286 933 604C936.383 602.135 936.383 602.135 939 600C940.562 601.25 940.562 601.25 942 603C941.394 608.16 937.58 611.537 934 615C925.021 621.89 916.029 622.75 905 622C898.383 620.736 892.461 615.472 888.641 610.082C885.97 605.234 885.254 600.483 885 595C882.321 597.569 880.123 600.152 878 603.188C869.727 613.872 857.397 621.027 844 623C827.784 623.83 813.035 622.564 799.75 612.254C791.17 604.437 786.662 593.627 785.785 582.199C785.368 569.327 788.696 558.451 797.039 548.59C811.11 533.698 832.16 527.653 851.19 521.677C867.463 516.778 867.463 516.778 879.012 505.148C882.723 497.08 881.731 487.384 878.91 479.184C876.238 472.772 872.102 467.838 865.742 464.988C858.913 462.623 852.504 462.121 845.734 464.945C840.239 468.019 837.252 471.813 835.427 477.917C834.956 480.214 834.757 482.433 834.605 484.773C834.537 485.681 834.468 486.588 834.396 487.523C834.258 489.416 834.13 491.309 834.014 493.203C833.428 500.517 831.879 504.194 826.562 509.375C821.106 511.864 815.897 511.744 810 511C805.017 508.64 801.259 505.27 799.242 500.031C797.336 493.18 798.014 487.026 801.16 480.648C809.966 466.372 823.343 460.9 839 457C860.012 452.159 883.885 455.595 901.633 467.813ZM876.375 519.75C869.018 524.617 861.263 528.604 853.349 532.485C840.442 538.975 830.979 546.98 825.762 560.605C822.677 570.304 822.875 581.341 827.223 590.605C831.062 597.537 834.969 601.403 842.312 604.313C853.004 606.306 862.2 604.485 871.312 598.375C877.03 593.761 880.654 586.877 883 580C883.287 576.909 883.287 576.909 883.227 573.557C883.227 571.636 883.227 571.636 883.227 569.676C883.216 568.288 883.206 566.9 883.195 565.512C883.192 564.084 883.189 562.656 883.187 561.229C883.179 557.482 883.159 553.735 883.137 549.989C883.117 546.161 883.108 542.334 883.098 538.506C883.076 531.004 883.042 523.502 883 516C880.8 516 878.055 518.619 876.375 519.75Z" fill="#FDFDFD"/>
<path d="M1202.37 469.25C1212.81 479.104 1217.69 494.143 1218.2 508.187C1218.3 512.314 1218.32 516.441 1218.34 520.568C1218.34 523.336 1218.36 526.104 1218.39 528.872C1218.44 535.742 1218.48 542.613 1218.52 549.483C1218.55 555.305 1218.59 561.127 1218.64 566.949C1218.66 569.658 1218.66 572.367 1218.67 575.076C1218.24 589.444 1218.24 589.444 1222.69 602.687C1226.04 604.592 1228.2 604.525 1232 604C1235.38 602.135 1235.38 602.135 1238 600C1238.99 600.99 1239.98 601.98 1241 603C1239.25 609.219 1234.85 614.241 1229.42 617.59C1220.15 622.267 1210.1 624.018 1199.93 621.129C1193.64 618.199 1188.81 614.156 1186.01 607.727C1184.67 603.892 1183.65 600.013 1183 596C1180.42 598.481 1178.06 601.085 1175.75 603.812C1166.78 614.032 1155.92 621.811 1142 623C1126 623.871 1111.57 622.267 1098.53 612.066C1090.29 604.57 1085.42 594.481 1084.8 583.363C1084.51 568.647 1087.76 557.401 1098.06 546.375C1110.97 534.239 1127.4 529.259 1143.82 523.672C1144.97 523.279 1146.12 522.885 1147.31 522.48C1149.55 521.721 1151.79 520.971 1154.03 520.233C1164.72 516.635 1174.02 512.773 1179.37 502.312C1181.29 492.163 1180.15 482.754 1175.19 473.687C1170.37 467.766 1165.56 464.364 1158 463C1151 462.566 1145.53 463.921 1139.88 468.125C1132.76 475.224 1132.79 485.644 1132.66 495.078C1132.45 500.153 1131.15 503.056 1128 507C1123.25 511.174 1118.82 511.291 1112.72 511.211C1107.53 510.808 1104.5 508.772 1101.19 504.937C1096.8 499.051 1097.34 493.163 1098 486C1101.06 475.801 1108.41 469.432 1117.41 464.344C1142.71 451.217 1179.43 450.85 1202.37 469.25ZM1178.26 517.578C1173.09 522.073 1166.98 524.748 1160.87 527.75C1144.93 535.763 1129.99 544.116 1124 562C1121.68 573.433 1122.12 585 1128.32 595.164C1132.55 600.593 1138.31 603.631 1145 605C1153.79 605.956 1161.47 604.169 1168.74 599.082C1175.52 593.399 1179.23 587.321 1182 579C1182.09 576.93 1182.12 574.857 1182.11 572.784C1182.11 571.503 1182.11 570.222 1182.11 568.902C1182.11 567.504 1182.1 566.105 1182.1 564.707C1182.1 563.276 1182.09 561.846 1182.09 560.415C1182.09 556.652 1182.08 552.889 1182.07 549.126C1182.06 545.285 1182.05 541.444 1182.05 537.603C1182.04 530.069 1182.02 522.534 1182 515C1180.49 514.886 1180.49 514.886 1178.26 517.578Z" fill="#FDFDFD"/>
<path d="M422 140C479.42 140 536.84 140 596 140C604 193 604 193 604 197C601.03 197.495 601.03 197.495 598 198C597.648 197.189 597.296 196.378 596.934 195.543C590.381 180.847 581.989 167.823 569 158C568.444 157.572 567.889 157.144 567.316 156.703C558.114 150.291 547.513 147.762 536.492 147.359C535.259 147.303 535.259 147.303 534.002 147.246C532.001 147.155 530.001 147.077 528 147C528.084 170.653 528.179 194.306 528.288 217.959C528.338 228.942 528.384 239.925 528.422 250.909C528.455 260.485 528.495 270.062 528.543 279.638C528.568 284.705 528.59 289.773 528.603 294.84C528.616 299.617 528.638 304.394 528.667 309.171C528.676 310.917 528.682 312.664 528.684 314.41C528.704 328.365 528.753 342.064 537 354C540.622 357.259 544.27 358.959 549 360C549 361.65 549 363.3 549 365C522.6 365 496.2 365 469 365C469.33 363.35 469.66 361.7 470 360C472.145 358.594 472.145 358.594 474.813 357.5C482.06 354.149 484.261 349.899 487.168 342.695C488.947 336.933 489.15 331.086 489.158 325.097C489.163 324.331 489.168 323.566 489.173 322.777C489.188 320.228 489.197 317.68 489.205 315.131C489.215 313.298 489.225 311.464 489.235 309.631C489.262 304.664 489.283 299.698 489.303 294.731C489.325 289.537 489.353 284.343 489.379 279.148C489.429 269.317 489.474 259.486 489.517 249.655C489.567 238.46 489.622 227.265 489.677 216.071C489.791 193.047 489.898 170.024 490 147C487.134 147.123 484.268 147.256 481.402 147.395C480.598 147.428 479.793 147.462 478.964 147.496C463.055 148.294 450.091 155.928 439 167C438.06 167.922 438.06 167.922 437.102 168.863C429.39 177.012 424.252 187.724 420 198C418.35 198 416.7 198 415 198C408.842 179.526 419.197 159.271 422 140Z" fill="#FEFEFE"/>
<path d="M923 460C947.42 460 971.84 460 997 460C997 461.32 997 462.64 997 464C996.457 464.219 995.915 464.438 995.355 464.664C991.755 466.26 989.42 467.448 987 470.625C982.192 486.853 993.428 504.964 999.938 519.438C1000.78 521.326 1001.62 523.214 1002.46 525.103C1003.74 527.963 1005.01 530.823 1006.29 533.681C1010.3 542.663 1014.25 551.671 1018.19 560.688C1018.79 562.06 1019.39 563.432 1019.99 564.804C1021.32 567.869 1022.66 570.934 1024 574C1026.29 571.708 1026.94 569.96 1028.11 566.945C1028.74 565.337 1028.74 565.337 1029.38 563.697C1029.83 562.518 1030.28 561.339 1030.75 560.125C1031.48 558.241 1032.21 556.357 1032.94 554.473C1033.46 553.129 1033.99 551.784 1034.51 550.439C1036.22 545.991 1037.96 541.55 1039.71 537.113C1040.94 533.972 1042.17 530.83 1043.41 527.687C1044 526.174 1044.59 524.661 1045.19 523.148C1048.44 514.904 1051.54 506.63 1054.36 498.227C1054.61 497.477 1054.86 496.728 1055.12 495.955C1057.75 487.976 1059.85 479.802 1056.62 471.688C1054.22 467.298 1050.63 466.129 1046.05 464.594C1045.37 464.398 1044.7 464.202 1044 464C1044 462.68 1044 461.36 1044 460C1061.16 460 1078.32 460 1096 460C1096 461.32 1096 462.64 1096 464C1095.23 464.329 1094.45 464.657 1093.66 464.996C1076.07 473.027 1069.73 488.954 1062.75 505.875C1062.05 507.545 1061.36 509.215 1060.66 510.885C1058.43 516.251 1056.21 521.625 1054 527C1053.63 527.904 1053.26 528.807 1052.87 529.738C1044.95 548.982 1037.1 568.259 1029.29 587.55C1027.47 592.043 1025.65 596.535 1023.83 601.028C1022.19 605.06 1020.56 609.094 1018.93 613.129C1017.16 617.512 1015.38 621.893 1013.59 626.272C1012.92 627.929 1012.25 629.587 1011.58 631.246C992.577 678.384 992.577 678.384 972 688C961.959 691.774 951.477 692.364 941.562 687.875C935.972 684.721 932.34 680.862 929.625 675.062C928.229 668.22 928.485 662.125 932 656C935.976 651.487 940.444 649.237 946.375 648.688C952.267 649.195 956.309 650.914 960.25 655.312C962.106 657.63 963.299 659.609 964.625 662.312C965.785 665.003 965.785 665.003 967.688 666.438C972.168 667.527 976.007 667.029 980.051 664.941C992.334 656.522 1002.01 636.419 1005 622C1004.52 616.528 1002.45 612.09 1000.17 607.176C999.587 605.901 999.587 605.901 998.993 604.6C997.731 601.834 996.459 599.074 995.188 596.312C994.309 594.39 993.43 592.467 992.553 590.544C991.242 587.67 989.93 584.795 988.616 581.922C985.321 574.719 982.077 567.495 978.875 560.25C977.947 558.155 977.018 556.06 976.09 553.965C975.608 552.877 975.125 551.789 974.628 550.667C969.45 538.997 964.233 527.343 959.004 515.695C957.425 512.179 955.848 508.662 954.281 505.141C952.82 501.861 951.349 498.586 949.875 495.312C949.475 494.407 949.074 493.501 948.662 492.568C944.774 483.994 940.202 475.229 933 469C932.041 468.165 932.041 468.165 931.062 467.312C928.498 465.68 925.905 464.858 923 464C923 462.68 923 461.36 923 460Z" fill="#FDFDFD"/>
<path d="M699.863 205.101C704.165 208.411 706.238 212.3 707.688 217.437C708.699 225.731 707.368 231.414 702.812 238.312C698.724 242.219 695.154 243.792 689.508 244.164C683.9 243.942 680.481 242.607 676.461 238.691C674.386 236.289 672.702 233.675 671 231C667.258 228.505 665.438 228.624 661 229C654.487 231.26 650.782 235.652 647.617 241.598C641.038 256.233 639.85 272.086 639.797 287.922C639.794 288.584 639.791 289.245 639.788 289.927C639.773 293.429 639.764 296.931 639.76 300.434C639.754 304.015 639.73 307.596 639.702 311.177C639.683 313.964 639.678 316.751 639.676 319.538C639.672 321.489 639.653 323.441 639.634 325.393C639.66 335.717 640.628 346.505 647 355C649.266 356.679 651.428 357.76 654 359C655.207 359.619 655.207 359.619 656.438 360.25C657.211 360.621 657.211 360.621 658 361C658 362.32 658 363.64 658 365C633.58 365 609.16 365 584 365C583.67 364.01 583.34 363.02 583 362C584.376 359.247 585.943 359.063 588.75 357.875C594.048 355.294 596.822 352.473 599 347C603.197 331.897 602.169 315.562 602.125 300C602.123 299.003 602.121 298.007 602.119 296.98C602.092 284.413 602.033 271.844 601.736 259.279C601.689 257.25 601.654 255.219 601.62 253.189C601.382 245.005 600.77 237.83 595.875 231.062C592.102 228.356 588.538 227.662 584 227C584 225.35 584 223.7 584 222C584.602 221.799 585.205 221.599 585.826 221.393C597.798 217.384 609.525 213.153 620.992 207.859C621.64 207.561 622.288 207.262 622.956 206.955C624.432 206.265 625.901 205.559 627.364 204.842C628.549 204.278 628.549 204.278 629.758 203.703C630.831 203.18 630.831 203.18 631.926 202.645C634 202 634 202 638 203C638.33 215.87 638.66 228.74 639 242C641.64 236.39 644.28 230.78 647 225C649.308 221.679 651.314 218.907 654 216C654.565 215.368 655.129 214.737 655.711 214.086C667.005 202.077 684.743 196.162 699.863 205.101Z" fill="#FDFDFD"/>
</svg>
