<svg width="327" height="327" viewBox="0 0 327 327" fill="none" xmlns="http://www.w3.org/2000/svg">
<path d="M163.501 0C253.799 0.000248204 327.001 73.2015 327.001 163.5C327.001 253.798 253.799 327 163.501 327C73.2024 327 7.5989e-05 253.799 0 163.5C0 73.2014 73.2024 0 163.501 0ZM182.692 71.9648C182.692 56.7545 162.634 51.2725 154.911 64.3721L92.7949 169.745C87.7628 178.282 93.9112 189.058 103.813 189.059H144.31V255.033C144.31 270.244 164.367 275.726 172.09 262.626L234.206 157.253C239.238 148.716 233.09 137.94 223.188 137.939H182.692V71.9648Z" fill="white"/>
</svg>
