<svg width="200" height="200" viewBox="0 0 200 200" fill="none" xmlns="http://www.w3.org/2000/svg">
<path d="M100 0C83.9837 0 71 12.9837 71 29V29.9878L70.3015 29.2893C58.9763 17.9641 40.6146 17.9641 29.2893 29.2893C17.9641 40.6145 17.9641 58.9763 29.2893 70.3015L29.9878 71H29C12.9837 71 0 83.9837 0 100C-1.96772e-06 116.016 12.9837 129 29 129H29.9878L29.2893 129.698C17.9641 141.024 17.9641 159.385 29.2893 170.711C40.6145 182.036 58.9763 182.036 70.3015 170.711L71 170.012V171C71 187.016 83.9837 200 100 200C116.016 200 129 187.016 129 171V170.012L129.699 170.711C141.024 182.036 159.385 182.036 170.711 170.711C182.036 159.385 182.036 141.024 170.711 129.699L170.012 129H171C187.016 129 200 116.016 200 100C200 83.9837 187.016 71 171 71H170.012L170.711 70.3015C182.036 58.9763 182.036 40.6145 170.711 29.2893C159.385 17.9641 141.024 17.9641 129.699 29.2893L129 29.9878V29C129 12.9837 116.016 0 100 0Z" fill="white"/>
</svg>
