<svg width="281" height="281" viewBox="0 0 281 281" fill="none" xmlns="http://www.w3.org/2000/svg">
<path d="M132.904 9.05861C136.088 3.01952 137.681 -2.79673e-05 140.152 -2.7881e-05C142.623 -2.77946e-05 144.215 3.01952 147.399 9.0586L172.292 56.2684C176.075 63.4431 176.075 72.0223 172.292 79.197L140.152 140.152L108.012 79.197C104.229 72.0223 104.229 63.4431 108.012 56.2684L132.904 9.05861Z" fill="white"/>
<path d="M140.153 140.154L172.292 201.108C176.075 208.283 176.075 216.862 172.292 224.036L147.4 271.246C144.216 277.285 142.623 280.305 140.152 280.305C137.681 280.305 136.089 277.285 132.905 271.246L108.012 224.036C104.229 216.862 104.229 208.283 108.012 201.108L140.151 140.154L79.1971 172.294C72.0223 176.077 63.4431 176.077 56.2684 172.294L9.05863 147.402C3.01954 144.217 -1.80808e-05 142.625 -1.79945e-05 140.154C-1.79082e-05 137.683 3.01953 136.091 9.05861 132.906L56.2684 108.014C63.4432 104.231 72.0223 104.231 79.1971 108.014L140.152 140.154L201.107 108.014C208.282 104.23 216.861 104.23 224.036 108.014L271.245 132.906C277.284 136.09 280.304 137.682 280.304 140.154C280.304 142.625 277.284 144.217 271.245 147.401L224.036 172.294C216.861 176.077 208.282 176.077 201.107 172.293L140.153 140.154Z" fill="white"/>
</svg>
