<svg width="184" height="200" viewBox="0 0 184 200" fill="none" xmlns="http://www.w3.org/2000/svg">
<path d="M136.982 54.4205C163.765 69.6782 177.157 77.307 181.436 87.3962C184.855 95.4548 184.855 104.545 181.436 112.604C177.157 122.693 163.765 130.322 136.982 145.579L79.0594 178.577C52.5524 193.678 38.2935 201.228 27.4315 199.837C18.7536 198.726 11.8945 195.192 6.61201 188.255C-1.54474e-05 179.571 -5.15084e-06 163.38 -3.82278e-06 132.998L-9.38036e-07 67.0024C3.90021e-07 36.62 -8.4911e-06 20.4288 6.61202 11.7455C11.8945 4.8082 18.7536 1.27412 27.4315 0.162923C38.2935 -1.22794 52.5524 6.32234 79.0594 21.4229L136.982 54.4205Z" fill="white"/>
</svg>
