<svg width="276" height="276" viewBox="0 0 276 276" fill="none" xmlns="http://www.w3.org/2000/svg">
<path d="M201.47 266C222.509 266 209.776 182.784 152.635 124.95C95.4941 67.1155 11 54.3852 11 75.6791C11 87.1948 20.976 97.5314 36.793 104.596C20.976 111.661 11 121.998 11 133.513C11 145.029 20.976 155.365 36.793 162.43C20.976 169.495 11 179.832 11 191.347C11 212.641 37.7151 192.149 62 216.728C86.2849 241.308 66.1493 266 87.188 266C98.5657 266 108.778 255.903 115.759 239.894C122.739 255.903 132.951 266 144.329 266C155.707 266 165.919 255.903 172.899 239.894C179.88 255.903 190.092 266 201.47 266Z" fill="white"/>
</svg>
