<svg width="276" height="276" viewBox="0 0 276 276" fill="none" xmlns="http://www.w3.org/2000/svg">
<path d="M201.164 254C224.42 254 201.164 202.065 201.164 138C201.164 73.935 224.42 22 201.164 22C188.587 22 177.298 37.1889 169.582 61.2711C161.866 37.1889 150.577 22 138 22C125.423 22 114.134 37.1889 106.418 61.2711C98.7021 37.1889 87.4131 22 74.8361 22C51.5799 22 74.8361 77.626 74.8361 141.691C74.8361 205.756 51.5799 254 74.8361 254C87.413 254 98.7022 238.811 106.418 214.729C114.134 238.811 125.423 254 138 254C150.577 254 161.866 238.811 169.582 214.729C177.298 238.811 188.587 254 201.164 254Z" fill="white"/>
</svg>
