<svg width="276" height="276" viewBox="0 0 276 276" fill="none" xmlns="http://www.w3.org/2000/svg">
<path d="M266 74.5301C266 53.4914 182.784 66.224 124.95 123.365C67.1155 180.506 54.3852 265 75.6791 265C87.1948 265 97.5314 255.024 104.596 239.207C111.661 255.024 121.998 265 133.513 265C145.029 265 155.365 255.024 162.43 239.207C169.495 255.024 179.832 265 191.347 265C212.641 265 192.149 238.285 216.728 214C241.308 189.715 266 209.851 266 188.812C266 177.434 255.903 167.222 239.894 160.242C255.903 153.261 266 143.049 266 131.671C266 120.293 255.903 110.081 239.894 103.101C255.903 96.1204 266 85.9077 266 74.5301Z" fill="white"/>
</svg>
