<svg width="276" height="276" viewBox="0 0 276 276" fill="none" xmlns="http://www.w3.org/2000/svg">
<path d="M74.5301 10C53.4913 10 66.224 93.2162 123.365 151.05C180.506 208.885 265 221.615 265 200.321C265 188.805 255.024 178.469 239.207 171.404C255.024 164.339 265 154.002 265 142.487C265 130.971 255.024 120.635 239.207 113.57C255.024 106.505 265 96.1684 265 84.6527C265 63.3587 238.285 83.8511 214 59.2715C189.715 34.692 209.851 10 188.812 10C177.434 10 167.222 20.097 160.242 36.1059C153.261 20.097 143.049 10 131.671 10C120.293 10 110.081 20.097 103.101 36.1059C96.1204 20.097 85.9077 10 74.5301 10Z" fill="white"/>
</svg>
