<svg width="276" height="276" viewBox="0 0 276 276" fill="none" xmlns="http://www.w3.org/2000/svg">
<path d="M10 201.47C10 222.509 93.2162 209.776 151.05 152.635C208.885 95.4941 221.615 11 200.321 11C188.805 11 178.469 20.976 171.404 36.793C164.339 20.976 154.002 11 142.487 11C130.971 11 120.635 20.976 113.57 36.793C106.505 20.976 96.1684 11 84.6527 11C63.3588 11 83.8511 37.7151 59.2715 62C34.692 86.2849 10 66.1493 10 87.188C10 98.5657 20.097 108.778 36.1059 115.759C20.097 122.739 10 132.951 10 144.329C10 155.707 20.097 165.919 36.1059 172.899C20.097 179.88 10 190.092 10 201.47Z" fill="white"/>
</svg>
