<svg width="276" height="276" viewBox="0 0 276 276" fill="none" xmlns="http://www.w3.org/2000/svg">
<g clip-path="url(#clip0_2081_1825)">
<path d="M137.998 40.4896C154.375 40.4897 160.681 44.0705 163.107 53.0013C167.007 67.3593 174.336 80.9125 188.562 85.267C202.789 89.6216 211.038 102.602 207.039 116.932C204.673 125.409 204.089 132.628 212.505 137.605L214.038 138.512C237.5 152.388 245.543 182.997 232.028 206.976C221.09 226.384 199.378 285.558 179.019 274.674C164.91 267.13 153.998 252.832 137.999 252.832C122 252.833 111.09 267.129 96.9823 274.674C76.6233 285.562 54.9103 226.385 43.9715 206.976C30.4566 182.997 38.4997 152.389 61.9618 138.513L63.493 137.607C71.6817 132.764 70.9343 125.797 68.3329 117.616C63.6513 102.892 71.9523 89.4087 86.6707 84.7094C101.389 80.0098 108.188 65.6345 113.276 51.0463C115.957 43.3598 122.422 40.4897 137.998 40.4896ZM117.883 126.029C90.1069 126.029 67.5898 149.099 67.5897 177.558C95.3655 177.558 117.882 154.487 117.883 126.029ZM157.111 126.029C157.111 154.487 179.628 177.558 207.404 177.558C207.404 149.099 184.887 126.029 157.111 126.029Z" fill="white"/>
<path d="M128.828 26.0613L130.733 14L138 26.0612L145.267 14L147.235 26.0612L155 78.338L121 78.338L128.828 26.0613Z" fill="white"/>
</g>
<defs>
<clipPath id="clip0_2081_1825">
<rect width="276" height="276" fill="white"/>
</clipPath>
</defs>
</svg>
