<svg width="276" height="276" viewBox="0 0 276 276" fill="none" xmlns="http://www.w3.org/2000/svg">
<path d="M137.998 40.4885C165.104 40.4885 187.078 62.8958 187.078 90.5354V92.594C187.078 111.147 196.766 128.296 212.505 137.605L214.038 138.512C237.5 152.388 278.987 138.512 232.028 206.975C218.437 231.089 188.215 316.595 164.621 252.83L163.409 249.556C147.696 207.09 128.305 207.09 112.592 249.556L111.379 252.832C87.7848 316.596 57.5624 231.089 43.9715 206.975C-2.98635 138.512 38.4997 152.388 61.9618 138.512L63.493 137.606C79.231 128.298 88.9188 111.15 88.9188 92.5979V90.5354C88.919 62.896 110.892 40.4887 137.998 40.4885ZM117.883 126.029C90.1071 126.029 67.5898 149.099 67.5897 177.558C95.3656 177.558 117.882 154.487 117.883 126.029ZM157.111 126.029C157.111 154.487 179.629 177.558 207.404 177.558C207.404 149.099 184.887 126.029 157.111 126.029Z" fill="white"/>
<path d="M178.992 214.378C173.94 245.865 144.5 267.836 138.496 267.836C132.492 267.836 103.051 245.865 97.9999 214.378C130.212 208.424 147.921 208.658 178.992 214.378Z" fill="white"/>
<mask id="path-3-inside-1_2081_1827" fill="white">
<path d="M83 14L138 60L193 14L164.71 91.7779V114H138H111.758V91.7779L83 14Z"/>
</mask>
<path d="M83 14L138 60L193 14L164.71 91.7779V114H138H111.758V91.7779L83 14Z" fill="white"/>
<path d="M83 14L114.436 -23.5868L-26.8236 -141.731L37.041 30.9933L83 14ZM138 60L106.564 97.5868L138 123.879L169.436 97.5868L138 60ZM193 14L239.048 30.7493L301.331 -140.483L161.564 -23.5868L193 14ZM111.758 114H62.7582V163H111.758V114ZM164.71 91.7779L118.661 75.0285L115.71 83.1432V91.7779H164.71ZM111.758 91.7779H160.758V83.0092L157.717 74.7846L111.758 91.7779ZM164.71 114V163H213.71V114H164.71ZM83 14L51.5638 51.5868L106.564 97.5868L138 60L169.436 22.4132L114.436 -23.5868L83 14ZM138 60L169.436 97.5868L224.436 51.5868L193 14L161.564 -23.5868L106.564 22.4132L138 60ZM138 114V65H111.758V114V163H138V114ZM193 14L146.952 -2.74934L118.661 75.0285L164.71 91.7779L210.758 108.527L239.048 30.7493L193 14ZM111.758 114H160.758V91.7779H111.758H62.7582V114H111.758ZM111.758 91.7779L157.717 74.7846L128.959 -2.99324L83 14L37.041 30.9933L65.7992 108.771L111.758 91.7779ZM164.71 91.7779H115.71V114H164.71H213.71V91.7779H164.71ZM164.71 114V65H138V114V163H164.71V114Z" fill="white" mask="url(#path-3-inside-1_2081_1827)"/>
</svg>
